<?xml version="1.0" standalone="no"?>
<!DOCTYPE svg PUBLIC "-//W3C//DTD SVG 1.1//EN" "http://www.w3.org/Graphics/SVG/1.1/DTD/svg11.dtd" >
<svg>
<metadata>
Created by FontForge 20120731 at Sat Dec  6 06:27:25 2014
 By Orthosie Webhosting
Copyright (C) 1993; Type Market Ltd. Moscow, 119136, Box 20; phone:(095)1427712; Created by A.Kustov
</metadata>
<defs>
<font id="HeliosCondRegular" horiz-adv-x="1966" >
  <font-face 
    font-family="HeliosCondRegular"
    font-weight="400"
    font-stretch="normal"
    units-per-em="4096"
    panose-1="2 11 114 0 0 0 0 0 0 0"
    ascent="3276"
    descent="-820"
    x-height="2183"
    cap-height="2949"
    bbox="-123 -848 4227 3711"
    underline-thickness="58"
    underline-position="-61"
    unicode-range="U+0020-2122"
  />
<missing-glyph horiz-adv-x="3072" 
d="M512 0v2560h2048v-2560h-2048zM2494 66v2428h-1916v-2428h1916z" />
    <glyph glyph-name=".notdef" horiz-adv-x="3072" 
d="M512 0v2560h2048v-2560h-2048zM2494 66v2428h-1916v-2428h1916z" />
    <glyph glyph-name=".null" horiz-adv-x="0" 
 />
    <glyph glyph-name="nonmarkingreturn" horiz-adv-x="0" 
 />
    <glyph glyph-name="space" unicode=" " horiz-adv-x="983" 
 />
    <glyph glyph-name="exclam" unicode="!" horiz-adv-x="1307" 
d="M565 721l-90 1323v905h356v-905l-90 -1323h-176zM831 0h-356v393h356v-393z" />
    <glyph glyph-name="quotedbl" unicode="&#x22;" horiz-adv-x="983" 
d="M172 2019v889h205v-889h-205zM610 2019v889h205v-889h-205z" />
    <glyph glyph-name="numbersign" unicode="#" 
d="M131 0l311 999h-422l70 234h422l147 487h-426l74 234h422l307 995h217l-307 -995h357l294 995h222l-303 -995h430l-66 -234h-442l-144 -487h435l-58 -234h-450l-308 -999h-217l308 999h-345l-315 -999h-213zM733 1233h340l152 487h-348z" />
    <glyph glyph-name="dollar" unicode="$" 
d="M1778 2163h-320q0 273 -90.5 382t-273.5 109v-1003q213 -95 351.5 -173t231 -172t140 -228t47.5 -324q0 -255 -85.5 -437t-257.5 -278t-427 -96v-398h-172v398q-290 0 -456 122.5t-230 336t-64 511.5h315q0 -249 40.5 -393.5t135 -209t259.5 -64.5v1097
q-225 104 -377.5 206.5t-250 257t-97.5 372.5q0 221 91 397t256 274.5t378 98.5v258h172v-258q236 0 390 -105t224 -282.5t70 -398.5zM922 1716v938q-89 0 -178.5 -45.5t-148 -145.5t-58.5 -255q0 -194 93 -295.5t292 -196.5zM1094 1282v-1036q234 0 332 121.5t98 357.5
q0 237 -95.5 347t-334.5 210z" />
    <glyph glyph-name="percent" unicode="%" horiz-adv-x="3277" 
d="M2339 2949l-1303 -3010h-213l1315 3010h201zM2437 1421q192 0 313 -93t172.5 -249.5t51.5 -361.5q0 -264 -64.5 -423t-182.5 -226.5t-290 -67.5q-261 0 -392.5 164.5t-131.5 564.5q0 310 122.5 501t401.5 191zM2437 1200q-159 0 -210.5 -142t-51.5 -394q0 -443 266 -443
q271 0 271 443q0 154 -18.5 269t-79.5 191t-177 76zM745 1470q-262 0 -395 165t-133 565q0 309 123.5 502.5t404.5 193.5q193 0 312 -94.5t170 -252.5t51 -362q0 -264 -64 -423t-182 -226.5t-287 -67.5zM750 1692q266 0 266 442q0 252 -51.5 396.5t-219.5 144.5
q-163 0 -214.5 -145t-51.5 -396q0 -442 271 -442z" />
    <glyph glyph-name="ampersand" unicode="&#x26;" horiz-adv-x="2621" 
d="M1475 2363q0 134 -73.5 229t-205.5 95q-125 0 -199.5 -91t-74.5 -220q0 -213 225 -533q161 124 244.5 240t83.5 280zM2048 537l381 -537h-393l-181 262q-269 -336 -696 -336q-261 0 -457.5 104.5t-301.5 300t-105 455.5q0 211 73.5 369.5t201 276t331.5 247.5
q-146 185 -220.5 334.5t-74.5 329.5q0 160 76 300t211 223t303 83q269 0 435.5 -158t166.5 -428q0 -398 -508 -737l565 -827q97 283 115 553h291q-36 -507 -213 -815zM1683 500l-643 954q-208 -154 -306.5 -299.5t-98.5 -368.5q0 -171 69.5 -298.5t195.5 -197t296 -69.5
q263 0 487 279z" />
    <glyph glyph-name="quotesingle" unicode="'" horiz-adv-x="983" 
d="M389 2019v889h205v-889h-205z" />
    <glyph glyph-name="parenleft" unicode="(" horiz-adv-x="1311" 
d="M909 2949h209q-59 -121 -154 -319.5t-167 -417t-119 -508.5t-47 -635q0 -552 117 -1001.5t391 -915.5h-230q-290 476 -450 932t-160 936q0 287 38.5 532.5t113.5 468.5t187 445.5t271 482.5z" />
    <glyph glyph-name="parenright" unicode=")" horiz-adv-x="1311" 
d="M401 -848h-208q59 122 154 321t167 416t119 503t47 640q0 550 -117 1000t-391 917h229q290 -471 450.5 -926.5t160.5 -941.5q0 -287 -39 -535.5t-113.5 -468.5t-187.5 -444t-271 -481z" />
    <glyph glyph-name="asterisk" unicode="*" 
d="M442 2630l447 -172v491h205v-479l434 160l65 -189l-450 -147l299 -377l-160 -127l-307 389l-283 -369l-168 107l295 364l-442 177z" />
    <glyph glyph-name="plus" unicode="+" 
d="M844 1135v852h274v-852h680v-275h-680v-860h-274v860h-672v275h672z" />
    <glyph glyph-name="comma" unicode="," horiz-adv-x="983" 
d="M508 0h-193v393h357v-463q0 -172 -95 -313.5t-262 -189.5v176q193 53 193 397z" />
    <glyph glyph-name="minus" unicode="-" 
d="M172 860v279h1626v-279h-1626z" />
    <glyph glyph-name="period" unicode="." horiz-adv-x="983" 
d="M672 0h-357v393h357v-393z" />
    <glyph glyph-name="slash" unicode="/" horiz-adv-x="1090" 
d="M188 -102h-241l950 3055h242z" />
    <glyph glyph-name="zero" unicode="0" 
d="M520 1450q0 -362 31 -623.5t133 -427.5t299 -166q283 0 375 325t92 892q0 517 -93.5 860.5t-373.5 343.5q-281 0 -372 -340t-91 -864zM983 -61q-351 0 -528 222t-226 540.5t-49 748.5q0 384 51.5 706.5t230 557.5t521.5 235q345 0 525 -234t231 -556t51 -709
q0 -323 -21.5 -564.5t-99.5 -460t-246 -352.5t-440 -134z" />
    <glyph glyph-name="one" unicode="1" 
d="M918 0v2150h-627v254q230 0 370.5 42.5t223 160.5t106.5 342h254v-2949h-327z" />
    <glyph glyph-name="two" unicode="2" 
d="M197 1946v135q0 249 85 445.5t259.5 309.5t429.5 113q245 0 417.5 -102t258.5 -286.5t86 -434.5q0 -209 -67.5 -377.5t-182 -303.5t-283.5 -286q-323 -291 -442.5 -410t-167.5 -211.5t-70 -242.5h1237v-295h-1585q0 279 53.5 468t208 381t475.5 458q219 181 351.5 378.5
t132.5 448.5q0 520 -439 520q-264 0 -349 -178.5t-85 -529.5h-323z" />
    <glyph glyph-name="three" unicode="3" 
d="M750 1372v295q305 0 457.5 112t152.5 392q0 483 -414 483q-217 0 -317.5 -163.5t-100.5 -413.5h-311q0 247 87 446t257 312.5t406 113.5q214 0 380 -91.5t255.5 -259t89.5 -382.5q0 -165 -46.5 -303.5t-147 -236t-253.5 -136.5q257 -58 390.5 -250.5t133.5 -490.5
q0 -390 -203 -631.5t-603 -241.5q-403 0 -603 256.5t-200 681.5h323q0 -285 103 -464t377 -179q232 0 355.5 151t123.5 390q0 254 -68.5 385.5t-213.5 178t-410 46.5z" />
    <glyph glyph-name="four" unicode="4" 
d="M1184 2437l-815 -1405h815v1405zM106 1036l1102 1913h303v-1917h263v-295h-263v-737h-327v737h-1078v299z" />
    <glyph glyph-name="five" unicode="5" 
d="M193 774h339q0 -536 435 -536q164 0 270.5 97.5t153.5 259.5t47 355q0 308 -104 500t-388 192q-294 0 -414 -270h-290l176 1520h1253v-295h-991l-131 -873q109 109 219 161t256 52q260 0 429 -129.5t247 -342.5t78 -466q0 -283 -77.5 -521t-258 -386.5t-467.5 -148.5
q-259 0 -433.5 95t-261.5 280.5t-87 455.5z" />
    <glyph glyph-name="six" unicode="6" 
d="M987 1577q-455 0 -455 -594q0 -403 123 -576.5t357 -173.5q257 0 353.5 211.5t96.5 505.5q0 627 -475 627zM1020 -61q-280 0 -455 122.5t-258.5 320t-109 424.5t-25.5 501q0 439 48.5 781t240.5 601.5t579 259.5q191 0 346.5 -90t244.5 -251.5t89 -362.5h-323
q-9 221 -112 315t-298 94q-159 0 -257.5 -122.5t-146 -303t-62 -328t-29.5 -393.5h8q81 180 227.5 272.5t312.5 92.5q376 0 569 -257.5t193 -643.5q0 -309 -101.5 -543.5t-280 -361.5t-400.5 -127z" />
    <glyph glyph-name="seven" unicode="7" 
d="M172 2593v295h1622v-271q-206 -277 -376 -594t-291 -646.5t-197.5 -676t-106.5 -700.5h-368q57 467 198 919.5t362 875t509 798.5h-1352z" />
    <glyph glyph-name="eight" unicode="8" 
d="M983 1430q-239 0 -351 -172t-112 -422q0 -289 101 -446t362 -157q265 0 364 154.5t99 448.5q0 254 -111.5 424t-351.5 170zM983 2654q-373 0 -373 -446q0 -484 385 -484q369 0 369 471q0 459 -381 459zM737 1589v4q-231 45 -349 223.5t-118 428.5q0 177 75 338
t235.5 263.5t402.5 102.5q240 0 403 -102t240.5 -265t77.5 -346q0 -240 -113.5 -419.5t-333.5 -223.5v-4q139 -25 260 -118.5t195 -259t74 -392.5q0 -279 -91.5 -476.5t-271.5 -300.5t-440 -103q-803 0 -803 880q0 223 85 390t213.5 261.5t258.5 118.5z" />
    <glyph glyph-name="nine" unicode="9" 
d="M1446 1925q0 296 -109 512.5t-374 216.5q-250 0 -352.5 -200t-102.5 -476q0 -667 459 -667q173 0 280.5 85.5t153 223t45.5 305.5zM950 2949q282 0 456.5 -121.5t257 -316t108.5 -418t26 -508.5q0 -454 -44 -789.5t-233.5 -596t-578.5 -260.5q-213 0 -372 87t-243.5 246
t-84.5 371h331q0 -203 94.5 -306.5t299.5 -103.5q174 0 278.5 124t151 303.5t57.5 310t25 409.5h-9q-81 -181 -227.5 -272.5t-312.5 -91.5q-253 0 -425 122.5t-254.5 328t-82.5 450.5q0 309 101.5 543.5t280 361.5t400.5 127z" />
    <glyph glyph-name="colon" unicode=":" horiz-adv-x="983" 
d="M672 0h-357v393h357v-393zM672 1757h-357v393h357v-393z" />
    <glyph glyph-name="semicolon" unicode=";" horiz-adv-x="983" 
d="M508 0h-193v393h357v-463q0 -172 -95 -313.5t-262 -189.5v176q193 67 193 397zM672 1757h-357v393h357v-393z" />
    <glyph glyph-name="less" unicode="&#x3c;" 
d="M471 999l1335 -749v-287l-1642 909v254l1642 910v-287z" />
    <glyph glyph-name="equal" unicode="=" 
d="M1798 1511v-274h-1626v274h1626zM1798 762v-275h-1626v275h1626z" />
    <glyph glyph-name="greater" unicode="&#x3e;" 
d="M164 250l1335 749l-1335 750v287l1642 -910v-254l-1642 -909v287z" />
    <glyph glyph-name="question" unicode="?" 
d="M1151 676h-356q0 203 19 322.5t83 229.5t209 259q189 192 279 352.5t90 347.5q0 191 -107 329t-311 138q-267 0 -363 -169t-96 -466h-344q0 251 80.5 463t256 339.5t441.5 127.5q379 0 581 -196t202 -541q0 -186 -46.5 -323t-121.5 -241.5t-217.5 -266.5t-200.5 -238
q-44 -60 -61 -152t-17 -315zM1151 0h-356v393h356v-393z" />
    <glyph glyph-name="at" unicode="@" horiz-adv-x="3146" 
d="M1696 2105q-196 0 -353 -155t-244 -378t-87 -413q0 -150 82 -263.5t225 -113.5q124 0 242 106t212 274t147.5 345t53.5 312q0 119 -78.5 202.5t-199.5 83.5zM2138 2081l57 184h271l-406 -1200q-49 -140 -49 -205q0 -49 33 -82t82 -33q198 0 353.5 157.5t239 385.5
t83.5 420q0 311 -164 550.5t-433 369t-571 129.5q-357 0 -652.5 -180.5t-466.5 -487t-171 -659.5q0 -351 176.5 -650.5t475.5 -474t646 -174.5q201 0 400 67t366 190t287 296h234q-123 -228 -325.5 -396.5t-452.5 -258.5t-509 -90q-413 0 -758.5 200.5t-543 546
t-197.5 756.5q0 303 117 578t325.5 484.5t482.5 327t579 117.5q276 0 522 -92t434 -261t293.5 -400.5t105.5 -503.5q0 -250 -121 -519t-336 -448.5t-472 -179.5q-117 0 -213 50.5t-131 149.5q-87 -93 -215 -146.5t-257 -53.5q-161 0 -286.5 79.5t-193.5 215.5t-68 299
q0 271 126.5 553t353 466.5t503.5 184.5q144 0 265 -67.5t181 -194.5z" />
    <glyph glyph-name="A" unicode="A" horiz-adv-x="2187" 
d="M45 0l840 2949h434l827 -2949h-360l-234 848h-929l-217 -848h-361zM1479 1143l-381 1569h-8l-390 -1569h779z" />
    <glyph glyph-name="B" unicode="B" horiz-adv-x="2183" 
d="M639 2654v-966h410q168 0 280 48.5t169.5 160t57.5 294.5q0 463 -479 463h-438zM639 1393v-1098h487q266 0 389 132.5t123 420.5q0 545 -540 545h-459zM1126 0h-815v2949h774q268 0 450.5 -90.5t271.5 -256t89 -390.5q0 -247 -111.5 -417.5t-318.5 -225.5v-8
q140 -18 257.5 -111.5t186 -251.5t68.5 -354q0 -410 -219.5 -627t-632.5 -217z" />
    <glyph glyph-name="C" unicode="C" horiz-adv-x="2187" 
d="M1978 2064h-327q0 648 -529 648q-370 0 -471.5 -351t-101.5 -841q0 -280 16 -491t72.5 -396t175 -296.5t309.5 -111.5q203 0 312.5 103t153.5 279.5t63 457.5h327q-20 -369 -97.5 -615t-255 -383t-478.5 -137q-309 0 -500.5 140t-285.5 370t-123 493t-29 578
q0 393 71 724t278.5 551t580.5 220q269 0 458.5 -122.5t285 -336t95.5 -483.5z" />
    <glyph glyph-name="D" unicode="D" horiz-adv-x="2400" 
d="M1188 0h-869v2949h811q432 0 657.5 -204t296 -518.5t70.5 -751.5q0 -1475 -966 -1475zM647 2654v-2359h524q240 0 380.5 124.5t202 394t61.5 718.5q0 367 -54 610.5t-196 377.5t-394 134h-524z" />
    <glyph glyph-name="E" unicode="E" 
d="M1774 0h-1483v2949h1478v-295h-1151v-975h1078v-295h-1078v-1089h1156v-295z" />
    <glyph glyph-name="F" unicode="F" horiz-adv-x="1745" 
d="M618 0h-327v2949h1384v-295h-1057v-966h984v-295h-984v-1393z" />
    <glyph glyph-name="G" unicode="G" horiz-adv-x="2400" 
d="M1106 1221v295h987v-1516h-254v438h-8q-42 -163 -143.5 -278t-244.5 -172.5t-308 -57.5q-399 0 -603 206t-263.5 523t-59.5 766q0 312 37 580.5t141.5 498t304.5 366t508 136.5q413 0 629.5 -239t234.5 -674h-331q0 285 -130.5 452t-402.5 167q-274 0 -417 -170
t-188.5 -442t-45.5 -654q0 -415 40.5 -674.5t164.5 -403t364 -143.5q279 0 422 143t184 354t41 499h-659z" />
    <glyph glyph-name="H" unicode="H" horiz-adv-x="2404" 
d="M639 0h-328v2949h328v-1229h1126v1229h328v-2949h-328v1425h-1126v-1425z" />
    <glyph glyph-name="I" unicode="I" horiz-adv-x="1090" 
d="M713 0h-328v2949h328v-2949z" />
    <glyph glyph-name="J" unicode="J" horiz-adv-x="1745" 
d="M106 922h328v-172q0 -168 18 -272.5t92.5 -174.5t229.5 -70q224 0 294.5 135.5t70.5 381.5v2199h327v-2224q0 -287 -82.5 -461.5t-233.5 -249.5t-368 -75q-381 0 -540 225q-76 111 -106 233.5t-30 331.5v193z" />
    <glyph glyph-name="K" unicode="K" horiz-adv-x="2187" 
d="M639 0h-328v2949h328v-1515l1073 1515h410l-942 -1233l970 -1716h-381l-786 1458l-344 -430v-1028z" />
    <glyph glyph-name="L" unicode="L" 
d="M1855 0h-1531v2949h327v-2654h1204v-295z" />
    <glyph glyph-name="M" unicode="M" horiz-adv-x="3056" 
d="M2761 2949v-2949h-328v2429q0 65 6 192t6 181h-12q-18 -78 -50 -202t-48 -192l-619 -2408h-389l-618 2441q-65 269 -86 361h-9q0 -81 6.5 -193.5t6.5 -187.5v-2421h-328v2949h578l577 -2302q37 -157 62 -434h8q46 336 73 438l586 2298h578z" />
    <glyph glyph-name="N" unicode="N" horiz-adv-x="2404" 
d="M2101 2949v-2949h-536l-824 2359q-70 194 -110 443h-8q8 -296 8 -451v-2351h-328v2949h533l835 -2412q60 -167 103 -324h12q-1 33 -4 98t-5.5 130t-2.5 100v2408h327z" />
    <glyph glyph-name="O" unicode="O" horiz-adv-x="2404" 
d="M1204 -70q-309 0 -504 121t-296 334t-136 479.5t-35 614.5q0 412 70.5 744t286 557.5t614.5 225.5q579 0 777 -434.5t198 -1092.5q0 -734 -194.5 -1141.5t-780.5 -407.5zM1839 1528q0 266 -29 476t-100 369.5t-199 249t-315 89.5q-240 0 -378 -151.5t-191.5 -410.5
t-53.5 -618q0 -345 25 -582.5t91 -398.5t190.5 -243.5t324.5 -82.5q201 0 326 83t192.5 244.5t92 396.5t24.5 579z" />
    <glyph glyph-name="P" unicode="P" horiz-adv-x="2187" 
d="M664 2654v-1110h319q250 0 403 41t235.5 166.5t82.5 366.5q0 299 -157 417.5t-470 118.5h-413zM664 0h-328v2949h819q420 0 654.5 -205t234.5 -626q0 -249 -71.5 -420t-198 -268.5t-296.5 -139t-384 -41.5h-430v-1249z" />
    <glyph glyph-name="Q" unicode="Q" horiz-adv-x="2400" 
d="M1950 352l340 -282l-168 -205l-328 274q-95 -95 -262.5 -154t-327.5 -59q-405 0 -620 211t-285 548t-70 814q0 295 34 550t133.5 473.5t296.5 351t503 132.5q312 0 511.5 -129.5t300.5 -341t136 -462t35 -553.5q0 -155 -18 -377t-69.5 -447.5t-141.5 -343.5zM1548 332
l-291 233l173 217l274 -221q34 57 65 198t50.5 318.5t19.5 331.5q0 448 -49 725t-190 427.5t-408 150.5q-261 0 -397 -150.5t-181 -428.5t-45 -728q0 -269 25 -477.5t91 -368t191.5 -249t319.5 -89.5q200 0 352 111z" />
    <glyph glyph-name="R" unicode="R" horiz-adv-x="2400" 
d="M664 1298v-1298h-328v2949h897q261 0 454 -86.5t297.5 -266.5t104.5 -450q0 -261 -143 -452.5t-390 -227.5v-8q153 -18 267 -107t175.5 -233.5t61.5 -326.5q0 -198 8.5 -336t23 -210t33 -110.5t34.5 -68.5v-66h-332q-50 146 -72 299t-22 385q0 297 -133.5 455.5
t-403.5 158.5h-532zM664 2654v-1061h569q211 0 363.5 123.5t152.5 417.5q0 201 -69.5 317t-184.5 159.5t-274 43.5h-557z" />
    <glyph glyph-name="S" unicode="S" horiz-adv-x="2187" 
d="M201 934h327q0 -228 50.5 -384.5t173 -240.5t333.5 -84q170 0 296.5 51.5t196 161t69.5 279.5q0 182 -54.5 290.5t-152 170t-273.5 129.5l-434 163q-224 86 -349.5 267t-125.5 508q0 228 100 401.5t282 266.5t421 93q255 0 439.5 -95t286.5 -281.5t114 -454.5h-328
q0 250 -124 393.5t-364 143.5q-256 0 -371.5 -131.5t-115.5 -335.5q0 -201 58.5 -303.5t199.5 -155.5l471 -176q344 -129 502 -337t158 -507q0 -410 -239.5 -623t-670.5 -213q-278 0 -475.5 117.5t-299 344t-101.5 542.5z" />
    <glyph glyph-name="T" unicode="T" 
d="M57 2654v295h1856v-295h-762v-2654h-328v2654h-766z" />
    <glyph glyph-name="U" unicode="U" horiz-adv-x="2404" 
d="M319 709v2240h328v-2122q0 -153 35 -284t159 -226.5t363 -95.5t363 95.5t159 227t35 283.5v2122h328v-2240q0 -257 -107.5 -432.5t-306 -263t-471.5 -87.5q-411 0 -648 199t-237 584z" />
    <glyph glyph-name="V" unicode="V" horiz-adv-x="2187" 
d="M1094 238l688 2711h360l-848 -2949h-405l-844 2949h361l679 -2711h9z" />
    <glyph glyph-name="W" unicode="W" horiz-adv-x="3273" 
d="M1528 2003l-430 -2003h-402l-630 2949h360l385 -2031q60 -327 86 -680h8q17 142 30 244.5t29.5 212.5t34.5 198l435 2056h405l389 -2031q41 -216 86 -680h8q17 140 31.5 254.5t29.5 212t34 188.5l430 2056h360l-692 -2949h-406l-393 2003q-43 221 -82 725h-16
q-60 -586 -90 -725z" />
    <glyph glyph-name="X" unicode="X" horiz-adv-x="2187" 
d="M90 0l815 1516l-794 1433h364l619 -1151l618 1151h365l-791 -1433l807 -1516h-373l-626 1233l-639 -1233h-365z" />
    <glyph glyph-name="Y" unicode="Y" horiz-adv-x="2187" 
d="M406 2949l688 -1479l692 1479h360l-889 -1806v-1143h-327v1143l-885 1806h361z" />
    <glyph glyph-name="Z" unicode="Z" 
d="M1860 0h-1749v283l1392 2371h-1356v295h1692v-283l-1393 -2371h1414v-295z" />
    <glyph glyph-name="bracketleft" unicode="[" horiz-adv-x="1311" 
d="M1081 -823h-688v3772h688v-237h-381v-3290h381v-245z" />
    <glyph glyph-name="backslash" unicode="\" horiz-adv-x="983" 
d="M877 0l-1000 2949h229l1000 -2949h-229z" />
    <glyph glyph-name="bracketright" unicode="]" horiz-adv-x="1307" 
d="M918 -823h-693v245h385v3290h-385v237h693v-3772z" />
    <glyph glyph-name="asciicircum" unicode="^" 
d="M885 2949h192l619 -1642h-213l-504 1331l-496 -1331h-209z" />
    <glyph glyph-name="underscore" unicode="_" 
d="M1966 -467h-1966v229h1966v-229z" />
    <glyph glyph-name="grave" unicode="`" horiz-adv-x="1311" 
d="M139 3006h430l349 -552h-263z" />
    <glyph glyph-name="a" unicode="a" horiz-adv-x="1745" 
d="M1139 1192q-83 -48 -240 -117t-248 -125.5t-148 -150t-57 -242.5q0 -336 291 -336q195 0 312 123q38 43 56 85t26 113.5t8 207.5v442zM668 1221q224 83 389 163q82 39 82 258q0 189 -72.5 264.5t-259.5 75.5q-171 0 -245.5 -95.5t-74.5 -289.5h-278q0 648 631 648
q209 0 346 -75t200.5 -201.5t63.5 -280.5v-1291q0 -176 119 -176q37 0 69 8v-229q-42 -25 -127 -25q-157 0 -228.5 57t-106.5 263h-9q-55 -146 -192.5 -249t-290.5 -103q-561 0 -561 602q0 192 56 313.5t171.5 203t317.5 159.5z" />
    <glyph glyph-name="b" unicode="b" 
d="M1020 1982q-168 0 -262.5 -100t-133 -303.5t-38.5 -542.5q0 -244 29.5 -423t126.5 -293.5t282 -114.5q157 0 248 105.5t128.5 308.5t37.5 511q0 341 -79.5 596.5t-338.5 255.5zM582 258v-258h-287v2949h311v-987h8q177 283 459 283q383 0 535.5 -307t152.5 -812
q0 -343 -56.5 -603.5t-206.5 -420t-413 -159.5q-159 0 -282.5 68.5t-216.5 246.5h-4z" />
    <glyph glyph-name="c" unicode="c" horiz-adv-x="1745" 
d="M926 1982q-253 0 -341.5 -249.5t-88.5 -667.5q0 -378 77 -619t340 -241q224 0 296.5 146.5t88.5 410.5h295q0 -349 -160 -584t-499 -235q-313 0 -481 153.5t-224.5 395.5t-56.5 573q0 1180 758 1180q316 0 489.5 -210.5t173.5 -531.5h-295q0 479 -372 479z" />
    <glyph glyph-name="d" unicode="d" 
d="M1405 856v270q0 357 -76 606.5t-350 249.5q-135 0 -229.5 -81t-145.5 -276.5t-51 -518.5q0 -308 35 -501.5t128.5 -296.5t262.5 -103q146 0 243 105t140 256.5t43 289.5zM1405 1962v987h311v-2949h-299v287h-8q-99 -194 -217 -269t-315 -75q-371 0 -505 323t-134 881
q0 325 73 572.5t220.5 386.5t361.5 139q162 0 274.5 -67t229.5 -216h8z" />
    <glyph glyph-name="e" unicode="e" horiz-adv-x="1745" 
d="M492 1323h737q0 311 -69.5 485t-287.5 174q-230 0 -305 -185.5t-75 -473.5zM1241 729h311q0 -221 -70.5 -399.5t-219.5 -282.5t-369 -104q-240 0 -399 108t-242.5 363t-83.5 684q0 1147 700 1147q300 0 450 -162t192 -410t42 -604h-1060q0 -307 24.5 -484.5t109.5 -278.5
t259 -101q356 0 356 524z" />
    <glyph glyph-name="f" unicode="f" horiz-adv-x="1094" 
d="M369 0v1921h-320v262h320v193q0 205 34 326.5t141.5 188t319.5 66.5q50 0 156 -8v-262q-82 8 -123 8q-122 0 -169.5 -57.5t-47.5 -220.5v-234h340v-262h-340v-1921h-311z" />
    <glyph glyph-name="g" unicode="g" 
d="M930 1978q-426 0 -426 -880q0 -285 34.5 -482t121 -306t233.5 -109q215 0 320 149t130 340t25 449q0 374 -99.5 606.5t-338.5 232.5zM1368 1937v246h311v-2175q0 -387 -201 -570t-569 -183q-272 0 -446.5 133.5t-204.5 402.5h303q34 -270 340 -270q261 0 364 116t103 416
v201h-29q-97 -168 -205 -241.5t-257 -73.5q-244 0 -398.5 124t-226.5 381t-72 654q0 1143 688 1143q336 0 492 -304h8z" />
    <glyph glyph-name="h" unicode="h" 
d="M598 1462v-1462h-311v2949h311v-1003q234 299 545 299q255 0 397.5 -138t142.5 -419v-1688h-311v1602q0 185 -74 282.5t-254 97.5q-171 0 -307 -122q-84 -79 -111.5 -170t-27.5 -228z" />
    <glyph glyph-name="i" unicode="i" horiz-adv-x="877" 
d="M598 0h-311v2187h311v-2187zM598 2556h-311v393h311v-393z" />
    <glyph glyph-name="j" unicode="j" horiz-adv-x="872" 
d="M53 -745v286q8 -1 25 -2.5t33 -1.5q114 0 149 86t35 242v2322h311v-2273q0 -260 -49.5 -401t-167.5 -199.5t-336 -58.5zM606 2556h-311v393h311v-393z" />
    <glyph glyph-name="k" unicode="k" horiz-adv-x="1745" 
d="M582 0h-312v2949h312v-1782l757 1020h369l-676 -852l697 -1335h-365l-545 1090l-237 -312v-778z" />
    <glyph glyph-name="l" unicode="l" horiz-adv-x="877" 
d="M598 0h-311v2949h311v-2949z" />
    <glyph glyph-name="m" unicode="m" horiz-adv-x="3056" 
d="M610 1483v-1483h-311v2187h299v-278q87 149 223.5 242.5t300.5 93.5q173 0 309 -92t211 -252q120 178 255 261t331 83q239 0 402 -152q75 -72 105 -182.5t30 -325.5v-1585h-311v1602q0 197 -73 288.5t-263 91.5q-98 0 -167 -34t-153 -113q-62 -62 -86 -146.5t-24 -222.5
v-1466h-312v1602q0 185 -75 282.5t-252 97.5q-201 0 -332 -143q-60 -66 -83.5 -142.5t-23.5 -213.5z" />
    <glyph glyph-name="n" unicode="n" 
d="M598 1466v-1466h-311v2187h303v-237q125 151 253.5 223t295.5 72q255 0 399.5 -138.5t144.5 -418.5v-1688h-311v1602q0 187 -74 283.5t-254 96.5q-177 0 -307 -118q-84 -79 -111.5 -171t-27.5 -227z" />
    <glyph glyph-name="o" unicode="o" 
d="M983 2245q782 0 782 -1147q0 -433 -93 -688t-265 -361t-424 -106q-248 0 -420.5 106.5t-267 362.5t-94.5 690q0 559 192 851t590 292zM983 1982q-168 0 -268 -90t-145.5 -289.5t-45.5 -533.5q0 -274 41.5 -464t142.5 -295t275 -105q178 0 278.5 104.5t140.5 293.5t40 466
q0 336 -46.5 535t-146.5 288.5t-266 89.5z" />
    <glyph glyph-name="p" unicode="p" 
d="M1008 1982q-253 0 -333.5 -248.5t-80.5 -635.5q0 -262 25.5 -451t117 -315.5t275.5 -126.5q233 0 329.5 230.5t96.5 694.5q0 852 -430 852zM594 225v-966h-311v2924h299v-241h8q69 144 200 223.5t254 79.5q717 0 717 -1115q0 -266 -33.5 -478t-111 -371t-215 -248.5
t-336.5 -89.5q-155 0 -265 70.5t-206 211.5z" />
    <glyph glyph-name="q" unicode="q" 
d="M983 1982q-172 0 -265 -126t-125 -337.5t-32 -519.5q0 -362 90.5 -580t319.5 -218q183 0 275.5 132.5t117.5 320.5t25 448q0 402 -76 641t-330 239zM1401 1962v225h299v-2912h-311v963h-9q-107 -156 -213.5 -227.5t-248.5 -71.5q-228 0 -380 124t-226 368.5t-74 604.5
q0 341 63 613.5t208.5 434t379.5 161.5q329 0 504 -283h8z" />
    <glyph glyph-name="r" unicode="r" horiz-adv-x="1311" 
d="M631 1327v-1327h-312v2187h299v-356h9q87 196 219 290.5t334 94.5q20 0 86 -8v-303q-67 12 -131 12q-237 0 -370.5 -160.5t-133.5 -429.5z" />
    <glyph glyph-name="s" unicode="s" horiz-adv-x="1745" 
d="M176 639h295q0 -221 82.5 -327.5t286.5 -106.5q417 0 417 368q0 100 -43.5 168t-109.5 108t-163 78.5t-183 71.5q-186 79 -299.5 158.5t-173.5 194t-60 282.5q0 281 167.5 446t451.5 165q205 0 353.5 -74t227 -218.5t78.5 -350.5h-303q0 197 -81.5 288.5t-266.5 91.5
q-311 0 -311 -335q0 -164 94.5 -245t298.5 -153q201 -71 336 -145t223 -198.5t88 -311.5q0 -314 -188 -482.5t-537 -168.5q-249 0 -399 75.5t-215.5 226.5t-65.5 394z" />
    <glyph glyph-name="t" unicode="t" horiz-adv-x="1094" 
d="M651 2781v-594h361v-262h-361v-1491q0 -100 27 -136t117 -36h209v-262h-340q-112 0 -178.5 23.5t-106 101t-39.5 235.5v1565h-303v262h303v594h311z" />
    <glyph glyph-name="u" unicode="u" 
d="M1356 782v1405h311v-2187h-311v287h-8q-78 -166 -218 -257t-299 -91q-251 0 -389.5 139.5t-138.5 421.5v1687h311v-1700q0 -145 61 -215.5t218 -70.5q192 0 327.5 135t135.5 446z" />
    <glyph glyph-name="v" unicode="v" horiz-adv-x="1745" 
d="M700 0l-651 2187h324l495 -1925h9l495 1925h324l-660 -2187h-336z" />
    <glyph glyph-name="w" unicode="w" horiz-adv-x="2626" 
d="M1470 2187l373 -1925h8l381 1925h295l-491 -2187h-369l-348 1864h-8l-340 -1864h-365l-512 2187h303l398 -1925h8l348 1925h319z" />
    <glyph glyph-name="x" unicode="x" horiz-adv-x="1745" 
d="M705 1126l-631 1061h323l500 -835l471 835h324l-631 -1061l651 -1126h-319l-508 901l-529 -901h-319z" />
    <glyph glyph-name="y" unicode="y" horiz-adv-x="1745" 
d="M713 -37l-697 2224h324l516 -1745h8l484 1745h323l-680 -2199q-80 -258 -147 -402t-192.5 -237.5t-332.5 -93.5q-110 0 -221 36v275q104 -49 230 -49q151 0 236 114.5t149 331.5z" />
    <glyph glyph-name="z" unicode="z" horiz-adv-x="1528" 
d="M1438 0h-1344v246l1016 1683h-975v254h1295v-254l-1016 -1675h1024v-254z" />
    <glyph glyph-name="braceleft" unicode="{" horiz-adv-x="1077" 
d="M700 745v-679q0 -105 23 -179t97 -136.5t216 -110.5l4 -9q-281 0 -420.5 53t-187 172.5t-47.5 348.5v647q0 385 -356 438v8q190 12 273 126.5t83 283.5v729q0 189 61.5 300.5t205 161.5t397.5 50v-8q-204 -56 -276.5 -153.5t-72.5 -272.5v-737q0 -207 -82.5 -322
t-314.5 -158v-8q239 -50 318 -178t79 -367z" />
    <glyph glyph-name="bar" unicode="|" horiz-adv-x="983" 
d="M365 0v2949h253v-2949h-253z" />
    <glyph glyph-name="braceright" unicode="}" horiz-adv-x="1081" 
d="M385 1831v680q0 169 -77 270t-275 160v8q263 0 407 -53.5t202 -176.5t58 -343v-656q0 -384 353 -434v-8q-195 -11 -274 -115t-79 -291v-733q0 -198 -64 -307.5t-209 -155t-394 -45.5v4q203 56 277.5 156t74.5 279v733q0 208 80.5 320.5t312.5 154.5v8q-166 36 -251 108
t-113.5 175t-28.5 262z" />
    <glyph glyph-name="asciitilde" unicode="~" 
d="M635 1307q74 0 167 -37.5t223 -106.5t197.5 -100t120.5 -31q178 0 320 324l135 -185q-192 -434 -459 -434q-70 0 -143 30.5t-207.5 102.5t-211 105t-142.5 33q-83 0 -138.5 -49.5t-97 -128.5t-92.5 -175l-135 189q92 205 200 334t263 129z" />
    <glyph glyph-name="FLW161" unicode="&#xa1;" horiz-adv-x="2097" 
d="M1696 2949h344l-811 -2462q-103 -314 -232.5 -437.5t-316.5 -123.5q-167 0 -250 37v295q68 -37 217 -37q90 0 146 60.5t104 222.5l-868 2445h348l688 -2048zM500 3633h168q67 -282 376 -282q158 0 247.5 64t121.5 218h168q0 -253 -151.5 -378.5t-401.5 -125.5
q-229 0 -378.5 127.5t-149.5 376.5z" />
    <glyph glyph-name="cent" unicode="&#xa2;" horiz-adv-x="1745" 
d="M713 -49l-697 2236h324l491 -1896h9l508 1896h323l-651 -2089q-33 -109 -91.5 -291.5t-128 -297.5t-187 -184.5t-294.5 -69.5q-103 0 -221 32v279q104 -49 230 -49q134 0 201.5 57t104 155.5t79.5 221.5zM369 2896h159q57 -275 340 -275q140 0 221.5 63t110.5 212h164
q-12 -246 -149 -367t-363 -121q-206 0 -339 122t-144 366z" />
    <glyph glyph-name="currency" unicode="&#xa4;" 
d="M111 434l151 164q-168 269 -168 582q0 176 40 315t128 279l-151 168l184 208l151 -168q233 193 549 193q267 0 516 -193l156 168l184 -208l-147 -168q164 -285 164 -615q0 -283 -164 -561l147 -164l-184 -209l-156 168q-238 -196 -548 -196q-262 0 -517 196l-151 -168z
M971 479q173 0 313.5 94t220.5 258.5t80 360.5q0 185 -78 346.5t-214.5 257.5t-301.5 96q-181 0 -320.5 -92t-216.5 -254.5t-77 -365.5q0 -189 78.5 -350t214.5 -256t301 -95z" />
    <glyph glyph-name="yen" unicode="&#xa5;" 
d="M807 1032v111l-873 1806h394l655 -1479l684 1479h369l-906 -1806v-111h541v-172h-541v-303h541v-172h-541v-385h-323v385h-545v172h545v303h-545v172h545z" />
    <glyph glyph-name="brokenbar" unicode="&#xa6;" horiz-adv-x="983" 
d="M365 0v1180h253v-1180h-253zM365 2949h253v-1180h-253v1180z" />
    <glyph glyph-name="section" unicode="&#xa7;" 
d="M1130 1798q141 -91 273 -177t224 -167.5t150 -191t58 -254.5q0 -207 -110 -357.5t-312 -298.5q283 -211 283 -508q0 -211 -91 -361t-262.5 -226t-404.5 -76q-323 0 -507.5 203.5t-184.5 533.5h319q0 -220 103.5 -347.5t318.5 -127.5q174 0 283.5 91t109.5 261
q0 111 -53 196t-187 188t-452 308q-216 136 -336 244.5t-168.5 215t-48.5 245.5q0 394 447 610q-132 84 -203.5 217.5t-71.5 290.5q0 291 196 465t501 174q317 0 490 -185.5t173 -506.5h-324q0 422 -380 422q-150 0 -247.5 -91t-97.5 -241q0 -92 30.5 -153t136.5 -149
t345 -247zM1229 508q144 110 217.5 204.5t73.5 237.5q0 186 -275 381l-479 332q-160 -115 -237.5 -198t-77.5 -216q0 -105 55.5 -187.5t230.5 -217.5q9 -6 239 -163t253 -173z" />
    <glyph glyph-name="dieresis" unicode="&#xa8;" 
d="M1774 0h-1483v2949h1478v-295h-1151v-975h1078v-295h-1078v-1089h1156v-295zM537 3711h311v-393h-311v393zM1438 3318h-312v393h312v-393z" />
    <glyph glyph-name="copyright" unicode="&#xa9;" horiz-adv-x="3146" 
d="M1577 3011q416 0 770.5 -207t562 -560t207.5 -765q0 -421 -206.5 -779t-560 -566t-769.5 -208q-419 0 -775.5 207.5t-564.5 564.5t-208 777q0 310 120 591t333.5 493.5t494.5 332t596 119.5zM1577 2781q-358 0 -659 -172.5t-476.5 -470.5t-175.5 -655q0 -359 175.5 -665
t476.5 -484t659 -178t658.5 176.5t474.5 479.5t174 663q0 356 -174 656t-475.5 475t-657.5 175zM2130 1192h229q-21 -179 -122 -316t-258 -211.5t-337 -74.5q-251 0 -446.5 117t-302.5 322t-107 458q0 250 103 452t294.5 317.5t446.5 115.5q286 0 485.5 -156.5t243.5 -429.5
h-229q-21 119 -91 208.5t-176.5 139t-228.5 49.5q-195 0 -333.5 -91.5t-209.5 -248.5t-71 -352q0 -188 74 -352.5t215 -262.5t333 -98q191 0 331 114t157 300z" />
    <glyph glyph-name="ordfeminine" unicode="&#xaa;" horiz-adv-x="2187" 
d="M1978 2064h-327q0 648 -529 648q-301 0 -437 -311t-136 -722h778v-295h-778q0 -272 44 -530t171.5 -443.5t357.5 -185.5q297 0 413 221.5t116 618.5h327q0 -289 -63.5 -528.5t-173.5 -364.5q-112 -130 -250 -186t-344 -56q-308 0 -499.5 148t-285.5 383.5t-123.5 496.5
t-29.5 553q0 270 40 526.5t140.5 477.5t284.5 356t456 135q260 0 451 -111.5t294 -325t103 -505.5z" />
    <glyph glyph-name="guillemotleft" unicode="&#xab;" 
d="M336 1348l594 602v-328l-393 -401l393 -402v-327l-594 614v242zM1036 1348l594 602v-328l-393 -401l393 -402v-327l-594 614v242z" />
    <glyph glyph-name="logicalnot" unicode="&#xac;" 
d="M1524 459v774h-1352v274h1626v-1048h-274z" />
    <glyph glyph-name="hyphen" unicode="&#xad;" horiz-adv-x="1307" 
d="M1130 1081h-954v328h954v-328z" />
    <glyph glyph-name="registered" unicode="&#xae;" horiz-adv-x="3146" 
d="M1577 3011q415 0 770 -206.5t562.5 -560.5t207.5 -769q0 -421 -206.5 -778t-560.5 -564t-769 -207q-419 0 -775.5 207.5t-564.5 564.5t-208 777q0 313 120 593.5t334.5 493.5t495 331t594.5 118zM1577 2781q-357 0 -659 -175t-477 -474.5t-175 -656.5q0 -361 175 -664
t476 -479t660 -176q356 0 657.5 175.5t475.5 477.5t174 661q0 267 -100 507t-280.5 421.5t-418 282t-508.5 100.5zM1827 1405l516 -795h-254l-487 795h-381v-795h-222v1729h758q167 0 303.5 -41.5t224 -144.5t87.5 -277q0 -244 -155 -357.5t-390 -113.5zM1221 1569h508
q421 0 421 315q0 175 -121.5 233t-320.5 58h-487v-606z" />
    <glyph glyph-name="macron" unicode="&#xaf;" horiz-adv-x="1090" 
d="M709 0h-324v2949h324v-2949zM98 3711h308v-393h-308v393zM995 3318h-307v393h307v-393z" />
    <glyph glyph-name="degree" unicode="&#xb0;" horiz-adv-x="1573" 
d="M1380 2359q0 -161 -79 -296t-215 -214.5t-295 -79.5q-162 0 -297.5 79.5t-214 215t-78.5 295.5q0 168 78.5 303t213.5 211t298 76q159 0 294.5 -79.5t215 -215t79.5 -295.5zM1135 2359q0 143 -102.5 243.5t-246.5 100.5q-141 0 -240.5 -100.5t-99.5 -243.5
q0 -144 100 -244t245 -100q141 0 242.5 100.5t101.5 243.5z" />
    <glyph glyph-name="plusminus" unicode="&#xb1;" 
d="M844 1372v615h274v-615h680v-274h-680v-627h-274v627h-672v274h672zM172 0v274h1626v-274h-1626z" />
    <glyph glyph-name="twosuperior" unicode="&#xb2;" horiz-adv-x="1090" 
d="M713 0h-328v2949h328v-2949z" />
    <glyph glyph-name="threesuperior" unicode="&#xb3;" horiz-adv-x="877" 
d="M598 0h-311v2187h311v-2187zM598 2556h-311v393h311v-393z" />
    <glyph glyph-name="acute" unicode="&#xb4;" horiz-adv-x="1311" 
d="M393 2454l348 552h430l-516 -552h-262z" />
    <glyph glyph-name="mu" unicode="&#xb5;" 
d="M1348 782v1405h311v-2187h-311v287h-9q-78 -161 -217.5 -252.5t-298.5 -91.5q-53 0 -133 34t-84 35v-753h-311v1241v1687h311v-1700q0 -145 60.5 -213.5t218.5 -68.5q147 0 252 72t158 204.5t53 300.5z" />
    <glyph glyph-name="paragraph" unicode="&#xb6;" horiz-adv-x="1729" 
d="M618 -459v1897q-157 0 -301 103t-230.5 275.5t-86.5 366.5q0 218 73.5 389.5t235 272t408.5 100.5h819v-3404h-311v3142h-295v-3142h-312z" />
    <glyph glyph-name="periodcentered" unicode="&#xb7;" horiz-adv-x="983" 
d="M672 803h-357v393h357v-393z" />
    <glyph glyph-name="cedilla" unicode="&#xb8;" horiz-adv-x="1745" 
d="M492 1319h737q0 314 -69 488.5t-288 174.5q-230 0 -305 -187t-75 -476zM1245 725h307q0 -217 -71 -394t-220 -282.5t-368 -105.5q-240 0 -399 108t-242.5 363t-83.5 684q0 1147 700 1147q300 0 450 -161.5t192 -411t42 -607.5h-1060q0 -308 24.5 -484.5t110 -276
t258.5 -99.5q360 0 360 520zM422 2949h311v-393h-311v393zM1323 2556h-311v393h311v-393z" />
    <glyph glyph-name="onesuperior" unicode="&#xb9;" horiz-adv-x="3469" 
d="M2879 1966q172 0 286.5 -85t168 -236.5t53.5 -350.5q0 -346 -113.5 -529t-394.5 -183q-200 0 -311.5 86.5t-153.5 241.5t-42 384q0 672 507 672zM2879 1810q-152 0 -223 -133.5t-71 -410.5q0 -255 65 -392t229 -137q170 0 232.5 132t62.5 388q0 283 -69.5 418t-225.5 135
zM3387 160h-1015v155h1015v-155zM1769 541v2408h328v-2949h-536l-828 2359q-76 227 -110 443h-9q2 -74 7.5 -209.5t5.5 -237.5v-2355h-328v2949h528l840 -2412q41 -117 102 -324h9q-9 239 -9 328z" />
    <glyph glyph-name="ordmasculine" unicode="&#xba;" horiz-adv-x="1745" 
d="M926 1982q-216 0 -323 -208t-107 -492h553v-262h-553q0 -214 28.5 -390.5t121 -300.5t267.5 -124q224 0 296.5 146.5t88.5 410.5h295q0 -349 -160 -584t-499 -235q-313 0 -481 153.5t-224.5 395.5t-56.5 573q0 516 154 848t604 332q316 0 489.5 -210.5t173.5 -531.5h-295
q0 479 -372 479z" />
    <glyph glyph-name="guillemotright" unicode="&#xbb;" 
d="M1630 1094l-594 -602v327l394 402l-394 401v328l594 -615v-241zM930 1094l-594 -602v327l393 402l-393 401v328l594 -615v-241z" />
    <glyph glyph-name="onequarter" unicode="&#xbc;" 
d="M172 864v275h1626v-275h-1626zM1139 1597h-312v394h312v-394zM1139 0h-312v406h312v-406z" />
    <glyph glyph-name="onehalf" unicode="&#xbd;" 
d="M791 999l-619 619l197 192l614 -618l623 623l192 -197l-618 -619l618 -618l-196 -193l-619 619l-623 -619l-188 193z" />
    <glyph glyph-name="threequarters" unicode="&#xbe;" horiz-adv-x="3932" 
d="M831 0h-356v393h356v-393zM2142 0h-356v393h356v-393zM3453 0h-356v393h356v-393z" />
    <glyph glyph-name="questiondown" unicode="&#xbf;" horiz-adv-x="877" 
d="M598 0h-311v2187h311v-2187zM-8 2949h311v-393h-311v393zM893 2556h-311v393h311v-393z" />
    <glyph glyph-name="Agrave" unicode="&#xc0;" horiz-adv-x="2187" 
d="M45 0l840 2949h434l827 -2949h-360l-234 848h-929l-217 -848h-361zM1479 1143l-381 1569h-8l-390 -1569h779z" />
    <glyph glyph-name="Agrave" unicode="&#x410;" horiz-adv-x="2187" 
d="M45 0l840 2949h434l827 -2949h-360l-234 848h-929l-217 -848h-361zM1479 1143l-381 1569h-8l-390 -1569h779z" />
    <glyph glyph-name="Aacute" unicode="&#xc1;" horiz-adv-x="2126" 
d="M643 295v1106h279q247 0 401.5 -45t236.5 -168.5t82 -356.5q0 -298 -156 -417t-470 -119h-373zM1782 2949h-1467v-2949h783q415 0 649.5 204t234.5 627q0 248 -71 418.5t-198.5 268t-296.5 138t-384 40.5h-389v958h1139v295z" />
    <glyph glyph-name="Aacute" unicode="&#x411;" horiz-adv-x="2126" 
d="M643 295v1106h279q247 0 401.5 -45t236.5 -168.5t82 -356.5q0 -298 -156 -417t-470 -119h-373zM1782 2949h-1467v-2949h783q415 0 649.5 204t234.5 627q0 248 -71 418.5t-198.5 268t-296.5 138t-384 40.5h-389v958h1139v295z" />
    <glyph glyph-name="Acircumflex" unicode="&#xc2;" horiz-adv-x="2183" 
d="M639 2654v-966h410q168 0 280 48.5t169.5 160t57.5 294.5q0 463 -479 463h-438zM639 1393v-1098h487q266 0 389 132.5t123 420.5q0 545 -540 545h-459zM1126 0h-815v2949h774q268 0 450.5 -90.5t271.5 -256t89 -390.5q0 -247 -111.5 -417.5t-318.5 -225.5v-8
q140 -18 257.5 -111.5t186 -251.5t68.5 -354q0 -410 -219.5 -627t-632.5 -217z" />
    <glyph glyph-name="Acircumflex" unicode="&#x412;" horiz-adv-x="2183" 
d="M639 2654v-966h410q168 0 280 48.5t169.5 160t57.5 294.5q0 463 -479 463h-438zM639 1393v-1098h487q266 0 389 132.5t123 420.5q0 545 -540 545h-459zM1126 0h-815v2949h774q268 0 450.5 -90.5t271.5 -256t89 -390.5q0 -247 -111.5 -417.5t-318.5 -225.5v-8
q140 -18 257.5 -111.5t186 -251.5t68.5 -354q0 -410 -219.5 -627t-632.5 -217z" />
    <glyph glyph-name="Atilde" unicode="&#xc3;" horiz-adv-x="1925" 
d="M1855 2949h-1531v-2949h327v2654h1204v295z" />
    <glyph glyph-name="Atilde" unicode="&#x413;" horiz-adv-x="1925" 
d="M1855 2949h-1531v-2949h327v2654h1204v295z" />
    <glyph glyph-name="Adieresis" unicode="&#xc4;" horiz-adv-x="2470" 
d="M283 295q135 234 201.5 500.5t88 590t21.5 809.5v754h1565v-2654h237v-983h-315v688h-1684v-688h-315v983h201zM1831 2654h-909v-766q0 -349 -31.5 -637t-95 -524.5t-160.5 -431.5h1196v2359z" />
    <glyph glyph-name="Adieresis" unicode="&#x414;" horiz-adv-x="2470" 
d="M283 295q135 234 201.5 500.5t88 590t21.5 809.5v754h1565v-2654h237v-983h-315v688h-1684v-688h-315v983h201zM1831 2654h-909v-766q0 -349 -31.5 -637t-95 -524.5t-160.5 -431.5h1196v2359z" />
    <glyph glyph-name="Aring" unicode="&#xc5;" 
d="M1774 0h-1483v2949h1478v-295h-1151v-975h1078v-295h-1078v-1089h1156v-295z" />
    <glyph glyph-name="Aring" unicode="&#x415;" 
d="M1774 0h-1483v2949h1478v-295h-1151v-975h1078v-295h-1078v-1089h1156v-295z" />
    <glyph glyph-name="AE" unicode="&#xc6;" horiz-adv-x="3437" 
d="M1888 0h-327v1028l-349 430l-786 -1458h-377l967 1716l-938 1233h409l1074 -1515v1515h327v-1515l1069 1515h410l-938 -1233l967 -1716h-377l-787 1458l-344 -422v-1036z" />
    <glyph glyph-name="AE" unicode="&#x416;" horiz-adv-x="3437" 
d="M1888 0h-327v1028l-349 430l-786 -1458h-377l967 1716l-938 1233h409l1074 -1515v1515h327v-1515l1069 1515h410l-938 -1233l967 -1716h-377l-787 1458l-344 -422v-1036z" />
    <glyph glyph-name="Ccedilla" unicode="&#xc7;" horiz-adv-x="2195" 
d="M868 1417v295h217q484 0 484 492q0 240 -127.5 371.5t-356.5 131.5q-208 0 -349.5 -145.5t-166.5 -390.5h-327q50 390 276.5 610.5t599.5 220.5q228 0 408 -94t281.5 -261.5t101.5 -373.5q0 -276 -126.5 -449t-328.5 -251q258 -51 413.5 -255t155.5 -523
q0 -192 -78 -390.5t-281.5 -338.5t-545.5 -140q-313 0 -508.5 120t-289 337t-115.5 530h327q13 -230 70 -381.5t183.5 -231t340.5 -79.5q325 0 441 192t116 423q0 145 -58 279t-172 218t-273 84h-312z" />
    <glyph glyph-name="Ccedilla" unicode="&#x417;" horiz-adv-x="2195" 
d="M868 1417v295h217q484 0 484 492q0 240 -127.5 371.5t-356.5 131.5q-208 0 -349.5 -145.5t-166.5 -390.5h-327q50 390 276.5 610.5t599.5 220.5q228 0 408 -94t281.5 -261.5t101.5 -373.5q0 -276 -126.5 -449t-328.5 -251q258 -51 413.5 -255t155.5 -523
q0 -192 -78 -390.5t-281.5 -338.5t-545.5 -140q-313 0 -508.5 120t-289 337t-115.5 530h327q13 -230 70 -381.5t183.5 -231t340.5 -79.5q325 0 441 192t116 423q0 145 -58 279t-172 218t-273 84h-312z" />
    <glyph glyph-name="Egrave" unicode="&#xc8;" horiz-adv-x="2437" 
d="M299 2949v-2949h475l922 2322q64 163 114 480h9q-9 -333 -9 -451v-2351h328v2949h-475l-918 -2331q-40 -102 -74 -236.5t-44 -168.5h-9q9 191 9 328v2408h-328z" />
    <glyph glyph-name="Egrave" unicode="&#x418;" horiz-adv-x="2437" 
d="M299 2949v-2949h475l922 2322q64 163 114 480h9q-9 -333 -9 -451v-2351h328v2949h-475l-918 -2331q-40 -102 -74 -236.5t-44 -168.5h-9q9 191 9 328v2408h-328z" />
    <glyph glyph-name="Eacute" unicode="&#xc9;" horiz-adv-x="2462" 
d="M631 549v2400h-328v-2949h471l922 2327q62 154 114 479l13 4q-2 -79 -7.5 -217.5t-5.5 -237.5v-2355h328v2949h-475l-918 -2331q-40 -100 -75.5 -240t-42.5 -165h-9q13 276 13 336zM655 3633h168q67 -282 377 -282q158 0 247.5 64t121.5 218h168q0 -253 -151.5 -378.5
t-401.5 -125.5q-231 0 -380 128t-149 376z" />
    <glyph glyph-name="Eacute" unicode="&#x419;" horiz-adv-x="2462" 
d="M631 549v2400h-328v-2949h471l922 2327q62 154 114 479l13 4q-2 -79 -7.5 -217.5t-5.5 -237.5v-2355h328v2949h-475l-918 -2331q-40 -100 -75.5 -240t-42.5 -165h-9q13 276 13 336zM655 3633h168q67 -282 377 -282q158 0 247.5 64t121.5 218h168q0 -253 -151.5 -378.5
t-401.5 -125.5q-231 0 -380 128t-149 376z" />
    <glyph glyph-name="Ecircumflex" unicode="&#xca;" horiz-adv-x="2187" 
d="M639 0h-328v2949h328v-1515l1073 1515h410l-942 -1233l970 -1716h-381l-786 1458l-344 -430v-1028z" />
    <glyph glyph-name="Ecircumflex" unicode="&#x41a;" horiz-adv-x="2187" 
d="M639 0h-328v2949h328v-1515l1073 1515h410l-942 -1233l970 -1716h-381l-786 1458l-344 -430v-1028z" />
    <glyph glyph-name="Edieresis" unicode="&#xcb;" horiz-adv-x="2470" 
d="M508 2953h1646v-2953h-327v2658h-991v-1171q0 -326 -14 -569.5t-69 -462t-177 -355.5t-326 -137q-100 0 -197 25v291q56 -21 127 -21q147 0 217 148t90.5 435.5t20.5 821.5v1290z" />
    <glyph glyph-name="Edieresis" unicode="&#x41b;" horiz-adv-x="2470" 
d="M508 2953h1646v-2953h-327v2658h-991v-1171q0 -326 -14 -569.5t-69 -462t-177 -355.5t-326 -137q-100 0 -197 25v291q56 -21 127 -21q147 0 217 148t90.5 435.5t20.5 821.5v1290z" />
    <glyph glyph-name="Igrave" unicode="&#xcc;" horiz-adv-x="3056" 
d="M2761 2949v-2949h-328v2429q0 65 6 192t6 181h-12q-18 -78 -50 -202t-48 -192l-619 -2408h-389l-618 2441q-65 269 -86 361h-9q0 -81 6.5 -193.5t6.5 -187.5v-2421h-328v2949h578l577 -2302q37 -157 62 -434h8q46 336 73 438l586 2298h578z" />
    <glyph glyph-name="Igrave" unicode="&#x41c;" horiz-adv-x="3056" 
d="M2761 2949v-2949h-328v2429q0 65 6 192t6 181h-12q-18 -78 -50 -202t-48 -192l-619 -2408h-389l-618 2441q-65 269 -86 361h-9q0 -81 6.5 -193.5t6.5 -187.5v-2421h-328v2949h578l577 -2302q37 -157 62 -434h8q46 336 73 438l586 2298h578z" />
    <glyph glyph-name="Iacute" unicode="&#xcd;" horiz-adv-x="2404" 
d="M639 0h-328v2949h328v-1229h1126v1229h328v-2949h-328v1425h-1126v-1425z" />
    <glyph glyph-name="Iacute" unicode="&#x41d;" horiz-adv-x="2404" 
d="M639 0h-328v2949h328v-1229h1126v1229h328v-2949h-328v1425h-1126v-1425z" />
    <glyph glyph-name="Icircumflex" unicode="&#xce;" horiz-adv-x="2404" 
d="M1204 -70q-309 0 -504 121t-296 334t-136 479.5t-35 614.5q0 412 70.5 744t286 557.5t614.5 225.5q579 0 777 -434.5t198 -1092.5q0 -734 -194.5 -1141.5t-780.5 -407.5zM1839 1528q0 266 -29 476t-100 369.5t-199 249t-315 89.5q-240 0 -378 -151.5t-191.5 -410.5
t-53.5 -618q0 -345 25 -582.5t91 -398.5t190.5 -243.5t324.5 -82.5q201 0 326 83t192.5 244.5t92 396.5t24.5 579z" />
    <glyph glyph-name="Icircumflex" unicode="&#x41e;" horiz-adv-x="2404" 
d="M1204 -70q-309 0 -504 121t-296 334t-136 479.5t-35 614.5q0 412 70.5 744t286 557.5t614.5 225.5q579 0 777 -434.5t198 -1092.5q0 -734 -194.5 -1141.5t-780.5 -407.5zM1839 1528q0 266 -29 476t-100 369.5t-199 249t-315 89.5q-240 0 -378 -151.5t-191.5 -410.5
t-53.5 -618q0 -345 25 -582.5t91 -398.5t190.5 -243.5t324.5 -82.5q201 0 326 83t192.5 244.5t92 396.5t24.5 579z" />
    <glyph glyph-name="Idieresis" unicode="&#xcf;" horiz-adv-x="2404" 
d="M639 0h-328v2949h1782v-2949h-328v2654h-1126v-2654z" />
    <glyph glyph-name="Idieresis" unicode="&#x41f;" horiz-adv-x="2404" 
d="M639 0h-328v2949h1782v-2949h-328v2654h-1126v-2654z" />
    <glyph glyph-name="Eth" unicode="&#xd0;" horiz-adv-x="2187" 
d="M664 2654v-1110h319q250 0 403 41t235.5 166.5t82.5 366.5q0 299 -157 417.5t-470 118.5h-413zM664 0h-328v2949h819q420 0 654.5 -205t234.5 -626q0 -249 -71.5 -420t-198 -268.5t-296.5 -139t-384 -41.5h-430v-1249z" />
    <glyph glyph-name="Eth" unicode="&#x420;" horiz-adv-x="2187" 
d="M664 2654v-1110h319q250 0 403 41t235.5 166.5t82.5 366.5q0 299 -157 417.5t-470 118.5h-413zM664 0h-328v2949h819q420 0 654.5 -205t234.5 -626q0 -249 -71.5 -420t-198 -268.5t-296.5 -139t-384 -41.5h-430v-1249z" />
    <glyph glyph-name="Ntilde" unicode="&#xd1;" horiz-adv-x="2187" 
d="M1978 2064h-327q0 648 -529 648q-370 0 -471.5 -351t-101.5 -841q0 -280 16 -491t72.5 -396t175 -296.5t309.5 -111.5q203 0 312.5 103t153.5 279.5t63 457.5h327q-20 -369 -97.5 -615t-255 -383t-478.5 -137q-309 0 -500.5 140t-285.5 370t-123 493t-29 578
q0 393 71 724t278.5 551t580.5 220q269 0 458.5 -122.5t285 -336t95.5 -483.5z" />
    <glyph glyph-name="Ntilde" unicode="&#x421;" horiz-adv-x="2187" 
d="M1978 2064h-327q0 648 -529 648q-370 0 -471.5 -351t-101.5 -841q0 -280 16 -491t72.5 -396t175 -296.5t309.5 -111.5q203 0 312.5 103t153.5 279.5t63 457.5h327q-20 -369 -97.5 -615t-255 -383t-478.5 -137q-309 0 -500.5 140t-285.5 370t-123 493t-29 578
q0 393 71 724t278.5 551t580.5 220q269 0 458.5 -122.5t285 -336t95.5 -483.5z" />
    <glyph glyph-name="Ograve" unicode="&#xd2;" 
d="M57 2654v295h1856v-295h-762v-2654h-328v2654h-766z" />
    <glyph glyph-name="Ograve" unicode="&#x422;" 
d="M57 2654v295h1856v-295h-762v-2654h-328v2654h-766z" />
    <glyph glyph-name="Oacute" unicode="&#xd3;" horiz-adv-x="2097" 
d="M1696 2949h344l-811 -2462q-103 -314 -232.5 -437.5t-316.5 -123.5q-167 0 -250 37v295q68 -37 217 -37q90 0 146 60.5t104 222.5l-868 2445h348l688 -2048z" />
    <glyph glyph-name="Oacute" unicode="&#x423;" horiz-adv-x="2097" 
d="M1696 2949h344l-811 -2462q-103 -314 -232.5 -437.5t-316.5 -123.5q-167 0 -250 37v295q68 -37 217 -37q90 0 146 60.5t104 222.5l-868 2445h348l688 -2048z" />
    <glyph glyph-name="Ocircumflex" unicode="&#xd4;" horiz-adv-x="2892" 
d="M1278 2949h328v-303h82q275 0 517.5 -121.5t392.5 -378t150 -639.5q0 -385 -144.5 -644t-386 -383t-534.5 -124h-77v-356h-328v356h-82q-291 0 -532.5 123t-385 382.5t-143.5 645.5q0 380 149 637t390.5 379.5t517.5 122.5h86v303zM1606 2351v-1700h86q207 0 370 96
t254.5 291.5t91.5 477.5q0 411 -199 623t-521 212h-82zM1278 651v1700h-82q-206 0 -369.5 -91t-257.5 -280t-94 -464q0 -282 91.5 -477.5t254.5 -291.5t371 -96h86z" />
    <glyph glyph-name="Ocircumflex" unicode="&#x424;" horiz-adv-x="2892" 
d="M1278 2949h328v-303h82q275 0 517.5 -121.5t392.5 -378t150 -639.5q0 -385 -144.5 -644t-386 -383t-534.5 -124h-77v-356h-328v356h-82q-291 0 -532.5 123t-385 382.5t-143.5 645.5q0 380 149 637t390.5 379.5t517.5 122.5h86v303zM1606 2351v-1700h86q207 0 370 96
t254.5 291.5t91.5 477.5q0 411 -199 623t-521 212h-82zM1278 651v1700h-82q-206 0 -369.5 -91t-257.5 -280t-94 -464q0 -282 91.5 -477.5t254.5 -291.5t371 -96h86z" />
    <glyph glyph-name="Otilde" unicode="&#xd5;" horiz-adv-x="2187" 
d="M90 0l815 1516l-794 1433h364l619 -1151l618 1151h365l-791 -1433l807 -1516h-373l-626 1233l-639 -1233h-365z" />
    <glyph glyph-name="Otilde" unicode="&#x425;" horiz-adv-x="2187" 
d="M90 0l815 1516l-794 1433h364l619 -1151l618 1151h365l-791 -1433l807 -1516h-373l-626 1233l-639 -1233h-365z" />
    <glyph glyph-name="Odieresis" unicode="&#xd6;" horiz-adv-x="2404" 
d="M639 295h1126v2654h328v-2654h242v-983h-316v688h-1708v2949h328v-2654z" />
    <glyph glyph-name="Odieresis" unicode="&#x426;" horiz-adv-x="2404" 
d="M639 295h1126v2654h328v-2654h242v-983h-316v688h-1708v2949h328v-2654z" />
    <glyph glyph-name="multiply" unicode="&#xd7;" horiz-adv-x="2257" 
d="M1642 2949h328v-2949h-328v1430q-213 -37 -552 -37q-405 0 -604 173t-199 593v790h327v-754q0 -204 47 -312t162 -151.5t332 -43.5q305 0 487 32v1229z" />
    <glyph glyph-name="multiply" unicode="&#x427;" horiz-adv-x="2257" 
d="M1642 2949h328v-2949h-328v1430q-213 -37 -552 -37q-405 0 -604 173t-199 593v790h327v-754q0 -204 47 -312t162 -151.5t332 -43.5q305 0 487 32v1229z" />
    <glyph glyph-name="Oslash" unicode="&#xd8;" horiz-adv-x="3437" 
d="M311 2949h328v-2654h917v2654h328v-2654h918v2654h327v-2949h-2818v2949z" />
    <glyph glyph-name="Oslash" unicode="&#x428;" horiz-adv-x="3437" 
d="M311 2949h328v-2654h917v2654h328v-2654h918v2654h327v-2949h-2818v2949z" />
    <glyph glyph-name="Ugrave" unicode="&#xd9;" horiz-adv-x="3437" 
d="M311 2949h328v-2654h917v2654h328v-2654h918v2654h327v-2654h238v-983h-311v688h-2745v2949z" />
    <glyph glyph-name="Ugrave" unicode="&#x429;" horiz-adv-x="3437" 
d="M311 2949h328v-2654h917v2654h328v-2654h918v2654h327v-2654h238v-983h-311v688h-2745v2949z" />
    <glyph glyph-name="Uacute" unicode="&#xda;" horiz-adv-x="2392" 
d="M909 295v1106h279q247 0 401.5 -45t237 -168.5t82.5 -356.5q0 -298 -157 -417t-470 -119h-373zM909 2949h-929v-295h602v-2654h778q417 0 653 207t236 633q0 248 -71.5 417t-199.5 264.5t-297 135t-383 39.5h-389v1253z" />
    <glyph glyph-name="Uacute" unicode="&#x42a;" horiz-adv-x="2392" 
d="M909 295v1106h279q247 0 401.5 -45t237 -168.5t82.5 -356.5q0 -298 -157 -417t-470 -119h-373zM909 2949h-929v-295h602v-2654h778q417 0 653 207t236 633q0 248 -71.5 417t-199.5 264.5t-297 135t-383 39.5h-389v1253z" />
    <glyph glyph-name="Ucircumflex" unicode="&#xdb;" horiz-adv-x="3088" 
d="M643 295v1106h279q249 0 402.5 -43t235.5 -167.5t82 -359.5q0 -293 -157 -414.5t-469 -121.5h-373zM643 2949h-328v-2949h779q419 0 653.5 202t234.5 625q0 326 -122 519t-331 271.5t-497 78.5h-389v1253zM2761 0h-328v2949h328v-2949z" />
    <glyph glyph-name="Ucircumflex" unicode="&#x42b;" horiz-adv-x="3088" 
d="M643 295v1106h279q249 0 402.5 -43t235.5 -167.5t82 -359.5q0 -293 -157 -414.5t-469 -121.5h-373zM643 2949h-328v-2949h779q419 0 653.5 202t234.5 625q0 326 -122 519t-331 271.5t-497 78.5h-389v1253zM2761 0h-328v2949h328v-2949z" />
    <glyph glyph-name="Udieresis" unicode="&#xdc;" horiz-adv-x="2126" 
d="M643 295v1106h279q245 0 400 -46t237.5 -171t82.5 -353q0 -298 -156 -417t-470 -119h-373zM643 2949h-328v-2949h783q415 0 649.5 204t234.5 627q0 248 -71 418.5t-198.5 268t-296.5 138t-384 40.5h-389v1253z" />
    <glyph glyph-name="Udieresis" unicode="&#x42c;" horiz-adv-x="2126" 
d="M643 295v1106h279q245 0 400 -46t237.5 -171t82.5 -353q0 -298 -156 -417t-470 -119h-373zM643 2949h-328v-2949h783q415 0 649.5 204t234.5 627q0 248 -71 418.5t-198.5 268t-296.5 138t-384 40.5h-389v1253z" />
    <glyph glyph-name="Yacute" unicode="&#xdd;" horiz-adv-x="2187" 
d="M197 2064h327q45 648 529 648q175 0 291 -97t176.5 -250.5t83 -329t22.5 -356.5h-778v-295h778q0 -358 -42.5 -607.5t-168.5 -400.5t-362 -151q-203 0 -315.5 104.5t-157 285.5t-56.5 450h-323q0 -549 212.5 -842t655.5 -293q301 0 486 141.5t272 369.5t113 486.5
t26 583.5q0 297 -34.5 548.5t-130.5 468.5t-278 347.5t-462 130.5q-395 0 -620.5 -253t-243.5 -689z" />
    <glyph glyph-name="Yacute" unicode="&#x42d;" horiz-adv-x="2187" 
d="M197 2064h327q45 648 529 648q175 0 291 -97t176.5 -250.5t83 -329t22.5 -356.5h-778v-295h778q0 -358 -42.5 -607.5t-168.5 -400.5t-362 -151q-203 0 -315.5 104.5t-157 285.5t-56.5 450h-323q0 -549 212.5 -842t655.5 -293q301 0 486 141.5t272 369.5t113 486.5
t26 583.5q0 297 -34.5 548.5t-130.5 468.5t-278 347.5t-462 130.5q-395 0 -620.5 -253t-243.5 -689z" />
    <glyph glyph-name="Thorn" unicode="&#xde;" horiz-adv-x="3338" 
d="M655 1679h512q0 262 46 496t154.5 421t300.5 298.5t470 111.5q400 0 615.5 -225t285.5 -558t70 -744q0 -348 -35 -616.5t-134.5 -479t-296 -332t-505.5 -121.5q-298 0 -492 113t-298 313.5t-142.5 454.5t-38.5 573h-512v-1384h-327v2949h327v-1270zM2130 2712
q-239 0 -377.5 -152t-192 -412t-53.5 -620q0 -470 47 -743.5t184 -416.5t400 -143q200 0 325 82.5t191 242t90.5 392t24.5 586.5q0 556 -138.5 870t-500.5 314z" />
    <glyph glyph-name="Thorn" unicode="&#x42e;" horiz-adv-x="3338" 
d="M655 1679h512q0 262 46 496t154.5 421t300.5 298.5t470 111.5q400 0 615.5 -225t285.5 -558t70 -744q0 -348 -35 -616.5t-134.5 -479t-296 -332t-505.5 -121.5q-298 0 -492 113t-298 313.5t-142.5 454.5t-38.5 573h-512v-1384h-327v2949h327v-1270zM2130 2712
q-239 0 -377.5 -152t-192 -412t-53.5 -620q0 -470 47 -743.5t184 -416.5t400 -143q200 0 325 82.5t191 242t90.5 392t24.5 586.5q0 556 -138.5 870t-500.5 314z" />
    <glyph glyph-name="germandbls" unicode="&#xdf;" horiz-adv-x="2130" 
d="M1483 2654v-1106h-279q-243 0 -397.5 46.5t-237 170.5t-82.5 353q0 299 155 417.5t468 118.5h373zM1483 0h327v2949h-778q-419 0 -652 -203.5t-233 -627.5q0 -355 146.5 -545.5t419.5 -278.5l-664 -1294h365l643 1253h426v-1253z" />
    <glyph glyph-name="germandbls" unicode="&#x42f;" horiz-adv-x="2130" 
d="M1483 2654v-1106h-279q-243 0 -397.5 46.5t-237 170.5t-82.5 353q0 299 155 417.5t468 118.5h373zM1483 0h327v2949h-778q-419 0 -652 -203.5t-233 -627.5q0 -355 146.5 -545.5t419.5 -278.5l-664 -1294h365l643 1253h426v-1253z" />
    <glyph glyph-name="agrave" unicode="&#xe0;" horiz-adv-x="1745" 
d="M1139 1192q-83 -48 -240 -117t-248 -125.5t-148 -150t-57 -242.5q0 -336 291 -336q195 0 312 123q38 43 56 85t26 113.5t8 207.5v442zM668 1221q224 83 389 163q82 39 82 258q0 189 -72.5 264.5t-259.5 75.5q-171 0 -245.5 -95.5t-74.5 -289.5h-278q0 648 631 648
q209 0 346 -75t200.5 -201.5t63.5 -280.5v-1291q0 -176 119 -176q37 0 69 8v-229q-42 -25 -127 -25q-157 0 -228.5 57t-106.5 263h-9q-55 -146 -192.5 -249t-290.5 -103q-561 0 -561 602q0 192 56 313.5t171.5 203t317.5 159.5z" />
    <glyph glyph-name="agrave" unicode="&#x430;" horiz-adv-x="1745" 
d="M1139 1192q-83 -48 -240 -117t-248 -125.5t-148 -150t-57 -242.5q0 -336 291 -336q195 0 312 123q38 43 56 85t26 113.5t8 207.5v442zM668 1221q224 83 389 163q82 39 82 258q0 189 -72.5 264.5t-259.5 75.5q-171 0 -245.5 -95.5t-74.5 -289.5h-278q0 648 631 648
q209 0 346 -75t200.5 -201.5t63.5 -280.5v-1291q0 -176 119 -176q37 0 69 8v-229q-42 -25 -127 -25q-157 0 -228.5 57t-106.5 263h-9q-55 -146 -192.5 -249t-290.5 -103q-561 0 -561 602q0 192 56 313.5t171.5 203t317.5 159.5z" />
    <glyph glyph-name="aacute" unicode="&#xe1;" horiz-adv-x="1831" 
d="M418 1794q189 340 524 340q226 0 392.5 -123.5t255.5 -358.5t89 -558q0 -384 -83 -640.5t-257 -383.5t-442 -127q-287 0 -459 143.5t-247.5 430t-75.5 732.5q0 352 47 610.5t137 430.5t220 273t304 144q243 62 358 111t134 131h254q-47 -206 -196.5 -308.5t-426.5 -162.5
q-229 -53 -366 -228t-162 -456zM897 205q241 0 350 221.5t109 667.5q0 347 -116.5 562.5t-342.5 215.5q-223 0 -341 -211t-118 -567q0 -298 47 -494.5t149 -295.5t263 -99z" />
    <glyph glyph-name="aacute" unicode="&#x431;" horiz-adv-x="1831" 
d="M418 1794q189 340 524 340q226 0 392.5 -123.5t255.5 -358.5t89 -558q0 -384 -83 -640.5t-257 -383.5t-442 -127q-287 0 -459 143.5t-247.5 430t-75.5 732.5q0 352 47 610.5t137 430.5t220 273t304 144q243 62 358 111t134 131h254q-47 -206 -196.5 -308.5t-426.5 -162.5
q-229 -53 -366 -228t-162 -456zM897 205q241 0 350 221.5t109 667.5q0 347 -116.5 562.5t-342.5 215.5q-223 0 -341 -211t-118 -567q0 -298 47 -494.5t149 -295.5t263 -99z" />
    <glyph glyph-name="acircumflex" unicode="&#xe2;" horiz-adv-x="1790" 
d="M590 1933v-667h328q177 0 260.5 84.5t83.5 263.5q0 319 -332 319h-340zM590 1012v-758h364q207 0 284 92t77 297q0 184 -90.5 276.5t-249.5 92.5h-385zM1090 0h-811v2187h708q253 0 421.5 -142.5t168.5 -377.5q0 -205 -93 -341.5t-247 -178.5v-8q186 -45 289.5 -184
t103.5 -361q0 -182 -73.5 -317t-198 -206t-268.5 -71z" />
    <glyph glyph-name="acircumflex" unicode="&#x432;" horiz-adv-x="1790" 
d="M590 1933v-667h328q177 0 260.5 84.5t83.5 263.5q0 319 -332 319h-340zM590 1012v-758h364q207 0 284 92t77 297q0 184 -90.5 276.5t-249.5 92.5h-385zM1090 0h-811v2187h708q253 0 421.5 -142.5t168.5 -377.5q0 -205 -93 -341.5t-247 -178.5v-8q186 -45 289.5 -184
t103.5 -361q0 -182 -73.5 -317t-198 -206t-268.5 -71z" />
    <glyph glyph-name="atilde" unicode="&#xe3;" horiz-adv-x="1454" 
d="M287 0v2187h1155v-262h-844v-1925h-311z" />
    <glyph glyph-name="atilde" unicode="&#x433;" horiz-adv-x="1454" 
d="M287 0v2187h1155v-262h-844v-1925h-311z" />
    <glyph glyph-name="adieresis" unicode="&#xe4;" horiz-adv-x="2019" 
d="M262 262q104 218 157.5 380t77 355.5t23.5 468.5v721h1196v-1925h209v-856h-287v594h-1278v-594h-286v856h188zM1405 262v1663h-586v-627q0 -323 -52 -536t-185 -500h823z" />
    <glyph glyph-name="adieresis" unicode="&#x434;" horiz-adv-x="2019" 
d="M262 262q104 218 157.5 380t77 355.5t23.5 468.5v721h1196v-1925h209v-856h-287v594h-1278v-594h-286v856h188zM1405 262v1663h-586v-627q0 -323 -52 -536t-185 -500h823z" />
    <glyph glyph-name="aring" unicode="&#xe5;" horiz-adv-x="1745" 
d="M492 1323h737q0 311 -69.5 485t-287.5 174q-230 0 -305 -185.5t-75 -473.5zM1241 729h311q0 -221 -70.5 -399.5t-219.5 -282.5t-369 -104q-240 0 -399 108t-242.5 363t-83.5 684q0 1147 700 1147q300 0 450 -162t192 -410t42 -604h-1060q0 -307 24.5 -484.5t109.5 -278.5
t259 -101q356 0 356 524z" />
    <glyph glyph-name="aring" unicode="&#x435;" horiz-adv-x="1745" 
d="M492 1323h737q0 311 -69.5 485t-287.5 174q-230 0 -305 -185.5t-75 -473.5zM1241 729h311q0 -221 -70.5 -399.5t-219.5 -282.5t-369 -104q-240 0 -399 108t-242.5 363t-83.5 684q0 1147 700 1147q300 0 450 -162t192 -410t42 -604h-1060q0 -307 24.5 -484.5t109.5 -278.5
t259 -101q356 0 356 524z" />
    <glyph glyph-name="ae" unicode="&#xe6;" horiz-adv-x="2638" 
d="M1475 0h-312v778l-237 312l-545 -1090h-365l697 1339l-676 848h369l757 -1020v1020h312v-1020l753 1020h369l-676 -848l696 -1339h-364l-545 1090l-233 -312v-778z" />
    <glyph glyph-name="ae" unicode="&#x436;" horiz-adv-x="2638" 
d="M1475 0h-312v778l-237 312l-545 -1090h-365l697 1339l-676 848h369l757 -1020v1020h312v-1020l753 1020h369l-676 -848l696 -1339h-364l-545 1090l-233 -312v-778z" />
    <glyph glyph-name="ccedilla" unicode="&#xe7;" horiz-adv-x="1675" 
d="M672 1016v254h168q136 0 227.5 103.5t91.5 268.5q0 145 -86.5 242.5t-261.5 97.5q-178 0 -270 -103.5t-103 -276.5h-286q8 171 92 319t233.5 236t341.5 88q182 0 330 -72t232.5 -199t84.5 -278q0 -213 -106.5 -351t-282.5 -186v-8q178 -35 312.5 -175.5t134.5 -385.5
q0 -191 -84.5 -338t-242 -228t-366.5 -81q-226 0 -378 79.5t-234 245t-100 420.5h287q17 -187 64 -291.5t129 -148t212 -43.5q397 0 397 405q0 181 -96 293.5t-268 112.5h-172z" />
    <glyph glyph-name="ccedilla" unicode="&#x437;" horiz-adv-x="1675" 
d="M672 1016v254h168q136 0 227.5 103.5t91.5 268.5q0 145 -86.5 242.5t-261.5 97.5q-178 0 -270 -103.5t-103 -276.5h-286q8 171 92 319t233.5 236t341.5 88q182 0 330 -72t232.5 -199t84.5 -278q0 -213 -106.5 -351t-282.5 -186v-8q178 -35 312.5 -175.5t134.5 -385.5
q0 -191 -84.5 -338t-242 -228t-366.5 -81q-226 0 -378 79.5t-234 245t-100 420.5h287q17 -187 64 -291.5t129 -148t212 -43.5q397 0 397 405q0 181 -96 293.5t-268 112.5h-172z" />
    <glyph glyph-name="egrave" unicode="&#xe8;" horiz-adv-x="1995" 
d="M586 2187v-1663l-33 -262l70 262l725 1663h376v-2187h-311v1659l33 270l-70 -270l-725 -1659h-377v2187h312z" />
    <glyph glyph-name="egrave" unicode="&#x438;" horiz-adv-x="1995" 
d="M586 2187v-1663l-33 -262l70 262l725 1663h376v-2187h-311v1659l33 270l-70 -270l-725 -1659h-377v2187h312z" />
    <glyph glyph-name="eacute" unicode="&#xe9;" horiz-adv-x="1995" 
d="M586 2187v-1667l-33 -258l70 258l725 1667h376v-2187h-311v1659l33 270l-70 -270l-725 -1659h-377v2187h312zM512 2896h160q57 -275 340 -275q140 0 221 63.5t110 211.5h164q-12 -246 -149 -367t-363 -121q-206 0 -339 122t-144 366z" />
    <glyph glyph-name="eacute" unicode="&#x439;" horiz-adv-x="1995" 
d="M586 2187v-1667l-33 -258l70 258l725 1667h376v-2187h-311v1659l33 270l-70 -270l-725 -1659h-377v2187h312zM512 2896h160q57 -275 340 -275q140 0 221 63.5t110 211.5h164q-12 -246 -149 -367t-363 -121q-206 0 -339 122t-144 366z" />
    <glyph glyph-name="ecircumflex" unicode="&#xea;" horiz-adv-x="1745" 
d="M582 0h-312v2187h312v-1020l757 1020h369l-676 -848l697 -1339h-365l-545 1090l-237 -312v-778z" />
    <glyph glyph-name="ecircumflex" unicode="&#x43a;" horiz-adv-x="1745" 
d="M582 0h-312v2187h312v-1020l757 1020h369l-676 -848l697 -1339h-365l-545 1090l-237 -312v-778z" />
    <glyph glyph-name="edieresis" unicode="&#xeb;" 
d="M410 2187h1290v-2187h-311v1925h-680v-868q0 -529 -100.5 -799t-375.5 -270q-111 0 -188 28v238q61 -12 135 -12q89 0 137.5 65t70.5 246t22 528v1106z" />
    <glyph glyph-name="edieresis" unicode="&#x43b;" 
d="M410 2187h1290v-2187h-311v1925h-680v-868q0 -529 -100.5 -799t-375.5 -270q-111 0 -188 28v238q61 -12 135 -12q89 0 137.5 65t70.5 246t22 528v1106z" />
    <glyph glyph-name="igrave" unicode="&#xec;" horiz-adv-x="2478" 
d="M2195 0v2187h-483l-397 -1442l-74 -442l-82 442l-397 1442h-483v-2187h299v1925l552 -1925h209l557 1925v-1925h299z" />
    <glyph glyph-name="igrave" unicode="&#x43c;" horiz-adv-x="2478" 
d="M2195 0v2187h-483l-397 -1442l-74 -442l-82 442l-397 1442h-483v-2187h299v1925l552 -1925h209l557 1925v-1925h299z" />
    <glyph glyph-name="iacute" unicode="&#xed;" horiz-adv-x="1962" 
d="M287 0v2187h311v-905h774v905h311v-2187h-311v1020h-774v-1020h-311z" />
    <glyph glyph-name="iacute" unicode="&#x43d;" horiz-adv-x="1962" 
d="M287 0v2187h311v-905h774v905h311v-2187h-311v1020h-774v-1020h-311z" />
    <glyph glyph-name="icircumflex" unicode="&#xee;" 
d="M983 2245q782 0 782 -1147q0 -433 -93 -688t-265 -361t-424 -106q-248 0 -420.5 106.5t-267 362.5t-94.5 690q0 559 192 851t590 292zM983 1982q-168 0 -268 -90t-145.5 -289.5t-45.5 -533.5q0 -274 41.5 -464t142.5 -295t275 -105q178 0 278.5 104.5t140.5 293.5t40 466
q0 336 -46.5 535t-146.5 288.5t-266 89.5z" />
    <glyph glyph-name="icircumflex" unicode="&#x43e;" 
d="M983 2245q782 0 782 -1147q0 -433 -93 -688t-265 -361t-424 -106q-248 0 -420.5 106.5t-267 362.5t-94.5 690q0 559 192 851t590 292zM983 1982q-168 0 -268 -90t-145.5 -289.5t-45.5 -533.5q0 -274 41.5 -464t142.5 -295t275 -105q178 0 278.5 104.5t140.5 293.5t40 466
q0 336 -46.5 535t-146.5 288.5t-266 89.5z" />
    <glyph glyph-name="idieresis" unicode="&#xef;" horiz-adv-x="1962" 
d="M287 2187h1396v-2187h-311v1925h-774v-1925h-311v2187z" />
    <glyph glyph-name="idieresis" unicode="&#x43f;" horiz-adv-x="1962" 
d="M287 2187h1396v-2187h-311v1925h-774v-1925h-311v2187z" />
    <glyph glyph-name="eth" unicode="&#xf0;" 
d="M1008 1982q-253 0 -333.5 -248.5t-80.5 -635.5q0 -262 25.5 -451t117 -315.5t275.5 -126.5q233 0 329.5 230.5t96.5 694.5q0 852 -430 852zM594 225v-966h-311v2924h299v-241h8q69 144 200 223.5t254 79.5q717 0 717 -1115q0 -266 -33.5 -478t-111 -371t-215 -248.5
t-336.5 -89.5q-155 0 -265 70.5t-206 211.5z" />
    <glyph glyph-name="eth" unicode="&#x440;" 
d="M1008 1982q-253 0 -333.5 -248.5t-80.5 -635.5q0 -262 25.5 -451t117 -315.5t275.5 -126.5q233 0 329.5 230.5t96.5 694.5q0 852 -430 852zM594 225v-966h-311v2924h299v-241h8q69 144 200 223.5t254 79.5q717 0 717 -1115q0 -266 -33.5 -478t-111 -371t-215 -248.5
t-336.5 -89.5q-155 0 -265 70.5t-206 211.5z" />
    <glyph glyph-name="ntilde" unicode="&#xf1;" horiz-adv-x="1745" 
d="M926 1982q-253 0 -341.5 -249.5t-88.5 -667.5q0 -378 77 -619t340 -241q224 0 296.5 146.5t88.5 410.5h295q0 -349 -160 -584t-499 -235q-313 0 -481 153.5t-224.5 395.5t-56.5 573q0 1180 758 1180q316 0 489.5 -210.5t173.5 -531.5h-295q0 479 -372 479z" />
    <glyph glyph-name="ntilde" unicode="&#x441;" horiz-adv-x="1745" 
d="M926 1982q-253 0 -341.5 -249.5t-88.5 -667.5q0 -378 77 -619t340 -241q224 0 296.5 146.5t88.5 410.5h295q0 -349 -160 -584t-499 -235q-313 0 -481 153.5t-224.5 395.5t-56.5 573q0 1180 758 1180q316 0 489.5 -210.5t173.5 -531.5h-295q0 479 -372 479z" />
    <glyph glyph-name="ograve" unicode="&#xf2;" horiz-adv-x="1499" 
d="M909 0h-311v1925h-573v262h1454v-262h-570v-1925z" />
    <glyph glyph-name="ograve" unicode="&#x442;" horiz-adv-x="1499" 
d="M909 0h-311v1925h-573v262h1454v-262h-570v-1925z" />
    <glyph glyph-name="oacute" unicode="&#xf3;" horiz-adv-x="1745" 
d="M713 -37l-697 2224h324l516 -1745h8l484 1745h323l-680 -2199q-80 -258 -147 -402t-192.5 -237.5t-332.5 -93.5q-110 0 -221 36v275q104 -49 230 -49q151 0 236 114.5t149 331.5z" />
    <glyph glyph-name="oacute" unicode="&#x443;" horiz-adv-x="1745" 
d="M713 -37l-697 2224h324l516 -1745h8l484 1745h323l-680 -2199q-80 -258 -147 -402t-192.5 -237.5t-332.5 -93.5q-110 0 -221 36v275q104 -49 230 -49q151 0 236 114.5t149 331.5z" />
    <glyph glyph-name="ocircumflex" unicode="&#xf4;" horiz-adv-x="3043" 
d="M1675 -737h-311v966q-95 -141 -203 -213.5t-264 -72.5q-276 0 -431 158t-212 420.5t-57 613.5q0 321 66.5 568.5t226.5 394.5t423 147q139 0 259.5 -75t191.5 -224v1003h311v-1007q74 150 192 226.5t255 76.5q387 0 554 -304.5t167 -805.5q0 -1192 -705 -1192
q-154 0 -259.5 71t-203.5 215v-966zM950 1982q-430 0 -430 -847q0 -464 96.5 -697t329.5 -233q183 0 275.5 134t117.5 321t25 438q0 370 -74 627t-340 257zM2089 1982q-264 0 -339 -257t-75 -627q0 -410 80 -651.5t338 -241.5q234 0 330 231.5t96 698.5q0 847 -430 847z" />
    <glyph glyph-name="ocircumflex" unicode="&#x444;" horiz-adv-x="3043" 
d="M1675 -737h-311v966q-95 -141 -203 -213.5t-264 -72.5q-276 0 -431 158t-212 420.5t-57 613.5q0 321 66.5 568.5t226.5 394.5t423 147q139 0 259.5 -75t191.5 -224v1003h311v-1007q74 150 192 226.5t255 76.5q387 0 554 -304.5t167 -805.5q0 -1192 -705 -1192
q-154 0 -259.5 71t-203.5 215v-966zM950 1982q-430 0 -430 -847q0 -464 96.5 -697t329.5 -233q183 0 275.5 134t117.5 321t25 438q0 370 -74 627t-340 257zM2089 1982q-264 0 -339 -257t-75 -627q0 -410 80 -651.5t338 -241.5q234 0 330 231.5t96 698.5q0 847 -430 847z" />
    <glyph glyph-name="otilde" unicode="&#xf5;" horiz-adv-x="1745" 
d="M705 1126l-631 1061h323l500 -835l471 835h324l-631 -1061l651 -1126h-319l-508 901l-529 -901h-319z" />
    <glyph glyph-name="otilde" unicode="&#x445;" horiz-adv-x="1745" 
d="M705 1126l-631 1061h323l500 -835l471 835h324l-631 -1061l651 -1126h-319l-508 901l-529 -901h-319z" />
    <glyph glyph-name="odieresis" unicode="&#xf6;" horiz-adv-x="2015" 
d="M598 262h774v1925h311v-1925h213v-860h-286v598h-1323v2187h311v-1925z" />
    <glyph glyph-name="odieresis" unicode="&#x446;" horiz-adv-x="2015" 
d="M598 262h774v1925h311v-1925h213v-860h-286v598h-1323v2187h311v-1925z" />
    <glyph glyph-name="divide" unicode="&#xf7;" horiz-adv-x="1888" 
d="M1597 2187v-2187h-311v1020q-178 -41 -475 -41q-272 0 -408.5 159t-136.5 402v647h312v-618q0 -175 71.5 -251.5t268.5 -76.5q195 0 368 21v925h311z" />
    <glyph glyph-name="divide" unicode="&#x447;" horiz-adv-x="1888" 
d="M1597 2187v-2187h-311v1020q-178 -41 -475 -41q-272 0 -408.5 159t-136.5 402v647h312v-618q0 -175 71.5 -251.5t268.5 -76.5q195 0 368 21v925h311z" />
    <glyph glyph-name="oslash" unicode="&#xf8;" horiz-adv-x="2941" 
d="M2347 262v1925h311v-2187h-2359v2187h311v-1925h713v1925h311v-1925h713z" />
    <glyph glyph-name="oslash" unicode="&#x448;" horiz-adv-x="2941" 
d="M2347 262v1925h311v-2187h-2359v2187h311v-1925h713v1925h311v-1925h713z" />
    <glyph glyph-name="ugrave" unicode="&#xf9;" horiz-adv-x="2941" 
d="M2347 262v1925h311v-1925h213v-856h-286v594h-2286v2187h311v-1925h713v1925h311v-1925h713z" />
    <glyph glyph-name="ugrave" unicode="&#x449;" horiz-adv-x="2941" 
d="M2347 262v1925h311v-1925h213v-856h-286v594h-2286v2187h311v-1925h713v1925h311v-1925h713z" />
    <glyph glyph-name="uacute" unicode="&#xfa;" horiz-adv-x="1917" 
d="M717 1012v-758h327q144 0 232 43t127 127t39 211q0 377 -377 377h-348zM1155 0h-749v1925h-431v262h742v-921h438q178 0 315 -82t212 -229t75 -332q0 -183 -76.5 -325.5t-213.5 -220t-312 -77.5z" />
    <glyph glyph-name="uacute" unicode="&#x44a;" horiz-adv-x="1917" 
d="M717 1012v-758h327q144 0 232 43t127 127t39 211q0 377 -377 377h-348zM1155 0h-749v1925h-431v262h742v-921h438q178 0 315 -82t212 -229t75 -332q0 -183 -76.5 -325.5t-213.5 -220t-312 -77.5z" />
    <glyph glyph-name="ucircumflex" unicode="&#xfb;" horiz-adv-x="2580" 
d="M590 1012v-758h328q213 0 307 95.5t94 285.5q0 377 -377 377h-352zM1032 0h-753v2187h311v-921h442q178 0 315 -82t212 -229t75 -332q0 -183 -76.5 -325.5t-213.5 -220t-312 -77.5zM2302 0h-311v2187h311v-2187z" />
    <glyph glyph-name="ucircumflex" unicode="&#x44b;" horiz-adv-x="2580" 
d="M590 1012v-758h328q213 0 307 95.5t94 285.5q0 377 -377 377h-352zM1032 0h-753v2187h311v-921h442q178 0 315 -82t212 -229t75 -332q0 -183 -76.5 -325.5t-213.5 -220t-312 -77.5zM2302 0h-311v2187h311v-2187z" />
    <glyph glyph-name="udieresis" unicode="&#xfc;" horiz-adv-x="1790" 
d="M590 1012v-758h323q214 0 308 95.5t94 285.5q0 377 -377 377h-348zM1028 0h-749v2187h311v-921h438q271 0 436.5 -178.5t165.5 -464.5q0 -281 -167 -452t-435 -171z" />
    <glyph glyph-name="udieresis" unicode="&#x44c;" horiz-adv-x="1790" 
d="M590 1012v-758h323q214 0 308 95.5t94 285.5q0 377 -377 377h-348zM1028 0h-749v2187h311v-921h438q271 0 436.5 -178.5t165.5 -464.5q0 -281 -167 -452t-435 -171z" />
    <glyph glyph-name="yacute" unicode="&#xfd;" horiz-adv-x="1745" 
d="M713 1282v-262h553q0 -392 -80 -603.5t-322 -211.5q-154 0 -239.5 67t-119.5 188t-42 302h-295q0 -251 74 -435.5t231 -284t399 -99.5q283 0 442 155t217 404t58 567t-56.5 576t-217.5 429t-451 171q-211 0 -370 -99t-242.5 -268.5t-83.5 -374.5h295q0 200 97.5 339.5
t303.5 139.5q215 0 308.5 -201t93.5 -499h-553z" />
    <glyph glyph-name="yacute" unicode="&#x44d;" horiz-adv-x="1745" 
d="M713 1282v-262h553q0 -392 -80 -603.5t-322 -211.5q-154 0 -239.5 67t-119.5 188t-42 302h-295q0 -251 74 -435.5t231 -284t399 -99.5q283 0 442 155t217 404t58 567t-56.5 576t-217.5 429t-451 171q-211 0 -370 -99t-242.5 -268.5t-83.5 -374.5h295q0 200 97.5 339.5
t303.5 139.5q215 0 308.5 -201t93.5 -499h-553z" />
    <glyph glyph-name="thorn" unicode="&#xfe;" horiz-adv-x="2744" 
d="M602 1282h377q0 441 205.5 702t576.5 261q396 0 591.5 -281.5t195.5 -796.5q0 -460 -93 -729.5t-267 -382t-427 -112.5q-360 0 -571 250.5t-211 826.5h-377v-1020h-311v2187h311v-905zM1761 1982q-160 0 -260.5 -90.5t-149 -292.5t-48.5 -530q0 -419 102 -641.5
t356 -222.5q263 0 363 218.5t100 645.5q0 494 -107 703.5t-356 209.5z" />
    <glyph glyph-name="thorn" unicode="&#x44e;" horiz-adv-x="2744" 
d="M602 1282h377q0 441 205.5 702t576.5 261q396 0 591.5 -281.5t195.5 -796.5q0 -460 -93 -729.5t-267 -382t-427 -112.5q-360 0 -571 250.5t-211 826.5h-377v-1020h-311v2187h311v-905zM1761 1982q-160 0 -260.5 -90.5t-149 -292.5t-48.5 -530q0 -419 102 -641.5
t356 -222.5q263 0 363 218.5t100 645.5q0 494 -107 703.5t-356 209.5z" />
    <glyph glyph-name="ydieresis" unicode="&#xff;" horiz-adv-x="1778" 
d="M1184 1176v757h-336q-211 0 -302 -95.5t-91 -285.5q0 -376 376 -376h353zM741 2187h754v-2187h-311v922h-336l-447 -922h-340l467 954q-181 68 -285 231.5t-104 379.5q0 183 76 325.5t213.5 219.5t312.5 77z" />
    <glyph glyph-name="ydieresis" unicode="&#x44f;" horiz-adv-x="1778" 
d="M1184 1176v757h-336q-211 0 -302 -95.5t-91 -285.5q0 -376 376 -376h353zM741 2187h754v-2187h-311v922h-336l-447 -922h-340l467 954q-181 68 -285 231.5t-104 379.5q0 183 76 325.5t213.5 219.5t312.5 77z" />
    <glyph glyph-name="florin" unicode="&#x192;" 
d="M41 -705l37 271q51 -45 168 -45q136 0 208.5 58.5t112.5 192t84 404.5l238 1430h-434v262h479q52 340 130 575t217.5 370.5t360.5 135.5q153 0 275 -41l-66 -303q-76 82 -209 82q-127 0 -197.5 -89.5t-95.5 -196.5t-51.5 -289.5t-52.5 -243.5h475v-262h-508l-204 -1295
q-58 -370 -128 -589.5t-211 -347.5t-382 -128q-120 0 -246 49z" />
    <glyph glyph-name="circumflex" unicode="&#x2c6;" horiz-adv-x="1307" 
d="M913 2454l-258 368l-258 -368h-315l389 552h365l393 -552h-316z" />
    <glyph glyph-name="tilde" unicode="&#x2dc;" horiz-adv-x="1307" 
d="M1135 2945h188q-16 -183 -119.5 -306.5t-281.5 -123.5q-64 0 -123 17.5t-154 56t-157.5 58t-131.5 19.5q-66 0 -120 -57t-60 -123h-188q11 117 59 215t134.5 156.5t207.5 58.5q71 0 133.5 -19.5t158.5 -58.5t153.5 -56t119.5 -17q65 0 120 56.5t61 123.5z" />
    <glyph glyph-name="emdash" unicode="&#x2013;" 
d="M0 1085v275h1966v-275h-1966z" />
    <glyph glyph-name="endash" unicode="&#x2014;" horiz-adv-x="3932" 
d="M0 1085v275h3932v-275h-3932z" />
    <glyph glyph-name="quoteleft" unicode="&#x2018;" horiz-adv-x="877" 
d="M623 3015v-176q-193 -43 -193 -402h193v-389h-369v389q0 470 369 578z" />
    <glyph glyph-name="quoteright" unicode="&#x2019;" horiz-adv-x="877" 
d="M459 2556h-193v393h357v-463q0 -172 -95.5 -314t-261.5 -190v177q52 7 90 53q103 113 103 344z" />
    <glyph glyph-name="quotesinglbase" unicode="&#x201a;" horiz-adv-x="983" 
d="M508 0h-193v393h357v-463q0 -172 -95 -313.5t-262 -189.5v176q193 53 193 397z" />
    <glyph glyph-name="quotedblleft" unicode="&#x201c;" horiz-adv-x="1528" 
d="M614 3015v-176q-196 -42 -196 -402h196v-389h-372v389q0 470 372 578zM1286 3015v-176q-192 -41 -192 -402h192v-389h-368v389q0 471 368 578z" />
    <glyph glyph-name="quotedblright" unicode="&#x201d;" horiz-adv-x="1528" 
d="M446 2556h-192v393h356v-463q0 -172 -95 -315.5t-261 -188.5v177q192 67 192 397zM1114 2556h-192v393h356v-463q0 -172 -95 -315.5t-261 -188.5v177q192 62 192 397z" />
    <glyph glyph-name="quotedblbase" unicode="&#x201e;" horiz-adv-x="1528" 
d="M1114 0h-192v393h356v-463q0 -173 -94.5 -315.5t-261.5 -187.5v176q192 62 192 397zM446 0h-192v393h356v-463q0 -173 -94.5 -315.5t-261.5 -187.5v176q192 67 192 397z" />
    <glyph glyph-name="dagger" unicode="&#x2020;" 
d="M827 -692v2490h-671v275h671v876h316v-876h672v-275h-672v-2490h-316z" />
    <glyph glyph-name="daggerdbl" unicode="&#x2021;" 
d="M1393 1499v-172h-570q70 -128 70 -291q0 -226 -125 -427t-322 -359l9 -8q188 118 417 118q80 0 155.5 -14.5t150.5 -36t149 -40.5t127 -19q159 0 344 131l111 -262q-132 -99 -227 -129.5t-265 -30.5q-67 0 -157 26.5t-166 52.5t-166.5 45t-194.5 19q-126 0 -219.5 -38
t-234.5 -125l-160 241q228 189 343.5 364.5t115.5 422.5q0 173 -86 360h-373v172h295q-107 198 -158 346t-51 318q0 243 95 420.5t285.5 271.5t463.5 94q400 0 595 -235t195 -662h-328q0 294 -112.5 448t-374.5 154q-240 0 -359.5 -145t-119.5 -387q0 -247 205 -623h643z
" />
    <glyph glyph-name="bullet" unicode="&#x2022;" horiz-adv-x="1307" 
d="M1249 1475q0 -162 -80.5 -301t-217.5 -220.5t-300 -81.5q-244 0 -419 178.5t-175 424.5q0 248 175 427t419 179q163 0 300.5 -82t217.5 -221t80 -303z" />
    <glyph glyph-name="ellipsis" unicode="&#x2026;" horiz-adv-x="3932" 
d="M831 0h-356v393h356v-393zM2142 0h-356v393h356v-393zM3453 0h-356v393h356v-393z" />
    <glyph glyph-name="perthousand" unicode="&#x2030;" horiz-adv-x="4366" 
d="M2273 2949l-1339 -3015h-209l1335 3015h213zM2306 1421q194 0 313 -92.5t169.5 -248.5t50.5 -359q0 -392 -136 -556.5t-397 -164.5q-264 0 -396 164t-132 565q0 692 528 692zM2306 1200q-113 0 -171.5 -76.5t-76.5 -193t-18 -266.5q0 -443 270 -443q266 0 266 443
q0 286 -62 411t-208 125zM729 2892q192 0 311.5 -93t170.5 -250.5t51 -361.5q0 -392 -136 -556.5t-397 -164.5q-263 0 -395.5 166.5t-132.5 567.5q0 308 123 500t405 192zM733 1688q266 0 266 446q0 252 -52.5 394.5t-217.5 142.5q-154 0 -210 -131.5t-56 -405.5
q0 -446 270 -446zM3695 1421q191 0 310.5 -93t170.5 -250t51 -361q0 -390 -135.5 -553.5t-396.5 -163.5q-263 0 -396 164t-133 565q0 310 123 501t406 191zM3695 1200q-161 0 -214 -144t-53 -392q0 -443 271 -443q266 0 266 443q0 259 -52.5 397.5t-217.5 138.5z" />
    <glyph glyph-name="guilsinglleft" unicode="&#x2039;" horiz-adv-x="1090" 
d="M250 1348l594 602v-328l-393 -401l393 -402v-327l-594 614v242z" />
    <glyph glyph-name="guilsinglright" unicode="&#x203a;" horiz-adv-x="1090" 
d="M840 1094l-594 -602v327l393 402l-393 401v328l594 -615v-241z" />
    <glyph glyph-name="trademark" unicode="&#x2122;" horiz-adv-x="2949" 
d="M2830 2949v-1659h-217v1422h-8l-463 -1422h-127l-454 1422h-5v-1422h-217v1659h349l389 -1171l405 1171h348zM1102 2949v-237h-426v-1422h-242v1422h-434v237h1102z" />
    </font>
</defs>
</svg>
